<?xml version="1.0" standalone="no"?><!DOCTYPE svg PUBLIC "-//W3C//DTD SVG 1.1//EN" "http://www.w3.org/Graphics/SVG/1.1/DTD/svg11.dtd"><svg t="1568805882687" class="icon" viewBox="0 0 1024 1024" version="1.1" xmlns="http://www.w3.org/2000/svg" p-id="8197" width="48" height="48" xmlns:xlink="http://www.w3.org/1999/xlink"><defs><style type="text/css"></style></defs><path d="M802.9 447.4c25.5 0 44.9 9.5 58.1 28.6 11.4 16.9 17 39.3 17 67.3 0 28.6-6 51.1-18 67.7-13.5 17.8-33 26.7-58.5 26.7-21.5 0-38.9-8.4-52.1-25.3-13.5-16.6-20.3-38.9-20.3-66.8V541c0-27 6-48.8 18-65.4 12.9-18.8 31.5-28.2 55.8-28.2z" p-id="8198" fill="#1296db"></path><path d="M921.5 250.7h-51.2l-84.2-84.3c-10-10-26.2-10-36.2 0l-84.3 84.3H102.5C45.8 250.7 0 296.5 0 353.1v409.6c0 56.6 45.8 102.4 102.4 102.4h819.1c56.6 0 102.4-45.8 102.4-102.4V353.1c0.1-56.6-45.8-102.4-102.4-102.4z m-580 377.6c-19.6 25.2-46.2 37.8-79.7 37.8-34.1 0-60.4-16.6-78.8-49.8v134.5h-36.9V421.3h34.6v39.2c17.2-30.4 43.7-45.6 79.3-45.6 34.4 0 61.5 12.7 81 38.3 18.1 23.3 27.2 52.7 27.2 88 0 34.7-8.9 63.8-26.7 87.1z m266.9 0.4c-21.5 24.9-50.1 37.3-85.7 37.3s-64-12.4-85.2-37.3c-20.3-23-30.4-52.4-30.4-88 0-35.9 10.1-65.6 30.4-88.9 20.8-24.6 49.3-36.9 85.2-36.9 35.9 0 64.3 12.3 85.3 36.9 20.3 23.3 30.4 53 30.4 88.9 0 35.3-10 64.7-30 88z m273.2-0.4c-19.6 25.2-46.2 37.8-79.7 37.8-34.1 0-60.4-16.6-78.8-49.8v134.5h-36.9V421.3h34.6v39.2c17.2-30.4 43.7-45.6 79.3-45.6 34.4 0 61.4 12.7 81 38.3 18.1 23.3 27.2 52.7 27.2 88 0 34.7-8.9 63.8-26.7 87.1z" p-id="8199" fill="#1296db"></path><path d="M262.8 447.4c25.5 0 44.9 9.5 58.1 28.6 11.4 16.9 17 39.3 17 67.3 0 28.6-6 51.1-18 67.7-13.5 17.8-33 26.7-58.5 26.7-21.5 0-38.9-8.4-52.1-25.3-13.5-16.6-20.3-38.9-20.3-66.8V541c0-27 6-48.8 18-65.4 13-18.8 31.5-28.2 55.8-28.2zM524.1 447.9c24.9 0 44.7 9.7 59.4 29 12.6 17.8 18.9 39.8 18.9 65.9 0 25.8-6.3 47.6-18.9 65.4-14.7 19.4-34.6 29-59.4 29-25.5 0-45.2-9.7-59-29-12.6-17.2-18.9-39-18.9-65.4 0-26.7 6.3-48.7 18.9-65.9 13.8-19.3 33.5-29 59-29z" p-id="8200" fill="#1296db"></path></svg>