<?xml version="1.0" standalone="no"?><!DOCTYPE svg PUBLIC "-//W3C//DTD SVG 1.1//EN" "http://www.w3.org/Graphics/SVG/1.1/DTD/svg11.dtd"><svg t="1568805967185" class="icon" viewBox="0 0 1024 1024" version="1.1" xmlns="http://www.w3.org/2000/svg" p-id="8979" width="48" height="48" xmlns:xlink="http://www.w3.org/1999/xlink"><defs><style type="text/css"></style></defs><path d="M573.44 512.128l237.888 237.696a43.328 43.328 0 0 1 0 59.712 43.392 43.392 0 0 1-59.712 0L513.728 571.84l-247.872 247.872a44.672 44.672 0 0 1-61.568 0 44.672 44.672 0 0 1 0-61.568l247.872-247.872-237.952-237.824a43.328 43.328 0 0 1 0-59.648 43.392 43.392 0 0 1 59.712 0L511.872 450.56l246.272-246.272a44.672 44.672 0 0 1 61.568 0 44.672 44.672 0 0 1 0 61.568L573.44 512.128z" fill="#1296db" p-id="8980"></path></svg>