<?xml version="1.0" standalone="no"?><!DOCTYPE svg PUBLIC "-//W3C//DTD SVG 1.1//EN" "http://www.w3.org/Graphics/SVG/1.1/DTD/svg11.dtd"><svg t="1568637048425" class="icon" viewBox="0 0 1024 1024" version="1.1" xmlns="http://www.w3.org/2000/svg" p-id="14516" width="16" height="16" xmlns:xlink="http://www.w3.org/1999/xlink"><defs><style type="text/css"></style></defs><path d="M285.066 396.672c-4.464 10.417-16.369 14.881-26.785 10.417s-14.881-16.369-10.417-26.785c5.952-14.881 13.393-28.273 22.322-41.666 8.929-13.393 19.345-25.298 29.762-37.203v0 0c11.904-11.904 23.81-22.322 37.203-29.762 13.393-8.929 26.785-16.369 41.666-22.322 10.417-4.464 23.81 0 26.785 11.904 4.464 10.417 0 22.322-11.904 26.785-11.904 4.464-23.81 11.904-34.226 19.345-10.417 7.441-20.833 16.369-31.251 25.298-8.929 8.929-17.857 19.345-25.298 31.251-5.953 8.929-11.904 19.345-17.857 32.738v0zM770.184 719.59v0l151.786 151.786c14.881 13.393 14.881 35.714 0 49.107-13.393 13.393-35.714 13.393-49.107 0l-153.274-150.298c-29.762 25.297-62.5 44.643-98.214 59.524-44.643 19.345-95.239 28.273-145.834 28.273-52.083 0-101.19-10.417-147.322-28.273-46.132-19.345-89.286-47.619-123.512-83.333-35.714-35.714-63.988-77.381-83.333-125.001l-1.488-1.488c-17.857-44.643-28.273-93.75-28.273-144.345 0-52.083 10.417-101.19 28.273-145.834 19.345-47.619 47.619-89.287 83.333-125 68.453-69.94 165.179-111.608 270.833-111.608 50.595 0 101.191 10.417 145.834 29.763v0 0c46.132 19.345 89.287 47.619 125.001 83.333l1.488 1.488c34.226 34.226 62.5 75.892 81.846 122.024v1.488c17.857 44.643 28.273 93.75 28.273 144.345 0 52.083-10.417 101.19-29.763 145.834-13.393 35.714-32.738 69.94-56.548 98.214v0zM594.589 186.852v0c-37.202-14.881-77.381-23.81-119.047-23.81-86.309 0-165.179 34.226-221.726 90.774-28.273 28.273-52.083 63.988-68.452 101.19-14.881 37.203-23.81 77.381-23.81 119.047 0 41.666 7.441 81.846 22.322 119.047v1.488c16.369 37.203 38.691 72.917 68.453 101.191 28.273 28.273 62.5 52.083 101.191 68.453 35.714 14.881 77.381 23.81 119.047 23.81 41.666 0 83.333-8.929 119.047-23.81 37.203-16.369 72.917-38.691 101.19-66.965v0c28.273-28.273 52.083-63.988 68.453-101.191 14.881-35.714 23.81-77.381 23.81-119.047 0-41.666-8.929-81.846-22.322-117.56l-1.488-1.488c-16.369-37.203-37.203-71.429-65.476-99.702l-1.488-1.488c-26.785-31.251-61.012-53.572-99.702-69.94v0 0zM680.899 475.542v0c0-11.904 10.417-20.834 20.834-20.834 11.904 0 20.833 10.417 20.833 20.833 0 32.738-5.952 65.477-19.345 95.239v0c-11.904 29.763-29.763 56.548-53.572 80.358s-50.595 41.666-80.358 53.572c-29.762 13.393-62.5 19.345-95.239 19.345-11.904 0-20.833-8.929-20.833-20.833 0-11.904 8.929-20.833 20.833-20.833 26.785 0 53.572-5.952 78.869-14.881 23.81-10.417 46.132-25.298 66.965-44.643 19.345-19.345 34.226-41.666 44.643-65.477l1.488-1.488c8.929-26.785 14.881-53.572 14.881-80.358v0z" fill="#1296db" p-id="14517"></path></svg>