<?xml version="1.0" standalone="no"?><!DOCTYPE svg PUBLIC "-//W3C//DTD SVG 1.1//EN" "http://www.w3.org/Graphics/SVG/1.1/DTD/svg11.dtd"><svg t="1569223874289" class="icon" viewBox="0 0 1024 1024" version="1.1" xmlns="http://www.w3.org/2000/svg" p-id="3368" width="32" height="32" xmlns:xlink="http://www.w3.org/1999/xlink"><defs><style type="text/css"></style></defs><path d="M97.74775309 926.25224691h207.12612344a41.42522469 41.42522469 0 0 1 0 82.85044939H56.32252839a41.42522469 41.42522469 0 0 1-41.42522469-41.42522469v-248.55134814a41.42522469 41.42522469 0 0 1 82.85044939 0z" p-id="3369" fill="#1296db"></path><path d="M85.73443792 997.08938114a41.42522469 41.42522469 0 0 1-58.82381906-58.82381906l289.97657284-289.97657284a41.42522469 41.42522469 0 0 1 58.82381906 58.82381906zM926.25224691 926.25224691v-207.12612344a41.42522469 41.42522469 0 0 1 82.85044939 0v248.55134814a41.42522469 41.42522469 0 0 1-41.42522469 41.42522469h-248.55134814a41.42522469 41.42522469 0 0 1 0-82.85044939z" p-id="3370" fill="#1296db"></path><path d="M997.08938114 938.26556208a41.42522469 41.42522469 0 0 1-58.82381906 58.82381906l-289.97657284-289.97657284a41.42522469 41.42522469 0 0 1 58.82381906-58.82381906zM97.74775309 97.74775309v207.12612344a41.42522469 41.42522469 0 0 1-82.85044939 0V56.32252839a41.42522469 41.42522469 0 0 1 41.42522469-41.42522469h248.55134814a41.42522469 41.42522469 0 0 1 0 82.85044939z" p-id="3371" fill="#1296db"></path><path d="M26.91061886 85.73443792a41.42522469 41.42522469 0 0 1 58.82381906-58.82381906l289.97657284 289.97657284a41.42522469 41.42522469 0 0 1-58.82381906 58.82381906zM926.25224691 97.74775309h-207.12612344a41.42522469 41.42522469 0 0 1 0-82.85044939h248.55134814a41.42522469 41.42522469 0 0 1 41.42522469 41.42522469v248.55134814a41.42522469 41.42522469 0 0 1-82.85044939 0z" p-id="3372" fill="#1296db"></path><path d="M938.26556208 26.91061886a41.42522469 41.42522469 0 1 1 58.82381906 58.82381906l-289.97657284 289.97657284a41.42522469 41.42522469 0 0 1-58.82381906-58.82381906z" p-id="3373" fill="#1296db"></path></svg>