<?xml version="1.0" standalone="no"?><!DOCTYPE svg PUBLIC "-//W3C//DTD SVG 1.1//EN" "http://www.w3.org/Graphics/SVG/1.1/DTD/svg11.dtd"><svg t="1568733829474" class="icon" viewBox="0 0 1024 1024" version="1.1" xmlns="http://www.w3.org/2000/svg" p-id="9205" width="32" height="32" xmlns:xlink="http://www.w3.org/1999/xlink"><defs><style type="text/css"></style></defs><path d="M561.024 799.292h292.924v31.604h-292.924z" fill="#71CDE1" p-id="9206"></path><path d="M883.388 914.096H67.404C30.24 914.096 0 883.86 0 846.692V358.804C0 321.64 30.24 291.4 67.404 291.4h815.988c37.168 0 67.408 30.236 67.408 67.404v487.884c-0.004 37.172-30.24 67.408-67.412 67.408zM67.404 303.712c-30.38 0-55.092 24.716-55.092 55.092v487.884c0 30.38 24.712 55.092 55.092 55.092h815.988c30.38 0 55.096-24.716 55.096-55.092V358.804c0-30.38-24.716-55.092-55.096-55.092H67.404z" fill="#4A555F" p-id="9207"></path><path d="M883.388 914.096H67.404C30.24 914.096 0 883.86 0 846.692V358.804C0 321.64 30.24 291.4 67.404 291.4h815.988c37.168 0 67.408 30.236 67.408 67.404v487.884c-0.004 37.172-30.24 67.408-67.412 67.408zM67.404 303.712c-30.38 0-55.092 24.716-55.092 55.092v487.884c0 30.38 24.712 55.092 55.092 55.092h815.988c30.38 0 55.096-24.716 55.096-55.092V358.804c0-30.38-24.716-55.092-55.096-55.092H67.404z" fill="#4A555F" p-id="9208"></path><path d="M883.396 318.092h-816c-22.448 0-40.712 18.26-40.712 40.712v487.884c0 22.452 18.264 40.752 40.712 40.752h816c22.448 0 40.712-18.304 40.712-40.752V358.804c0-22.452-18.264-40.712-40.712-40.712zM76.344 606.356v-56.1c0-23.56 19.124-42.724 42.68-42.724h107.772c23.556 0 42.724 19.164 42.724 42.724v56.1c0 23.556-19.164 42.684-42.724 42.684H119.028c-23.56 0-42.684-19.128-42.684-42.684z m237.54 143.436H96.824v-56.224h217.06v56.224z m52.984-56.224h217.06v56.224H366.868v-56.224z m487.064 137.316h-292.904v-31.6h292.904v31.6z m0-81.092h-217.02v-56.224h217.02v56.224z m-99.524-149.468c-35.704 0-67.592-16.212-88.728-41.696a92.576 92.576 0 0 1-57.252 19.66c-51.548 0-93.324-41.78-93.324-93.284 0-51.548 41.78-93.328 93.324-93.328a92.936 92.936 0 0 1 57.292 19.66c21.136-25.484 53.024-41.696 88.688-41.696 63.696 0 115.324 51.668 115.324 115.364 0 63.692-51.628 115.32-115.324 115.32zM226.796 628.52a22.184 22.184 0 0 0 22.204-22.164v-56.1a22.192 22.192 0 0 0-22.204-22.204H119.028a22.22 22.22 0 0 0-22.204 22.204v56.1c0 12.228 9.972 22.164 22.204 22.164h107.768z" fill="#FFD552" p-id="9209"></path><path d="M956.572 732.596h-18.1V358.812c0-30.392-24.708-55.116-55.076-55.116H73.188V177.332c0-37.18 30.248-67.428 67.428-67.428h815.96c37.18 0 67.428 30.248 67.428 67.428v487.872c-0.004 37.16-30.252 67.392-67.432 67.392z m-5.788-12.312h5.788c30.392 0 55.116-24.708 55.116-55.076V177.332c0-30.392-24.724-55.116-55.116-55.116H140.616c-30.392 0-55.116 24.724-55.116 55.116v114.052H883.4c37.156 0 67.388 30.248 67.388 67.428v361.472z" fill="#4A555F" p-id="9210"></path><path d="M997.324 177.332v65.5H99.86V177.332c0-22.488 18.264-40.752 40.752-40.752h815.956c22.492 0 40.756 18.264 40.756 40.752zM965.148 402.192h32.176v263.016c0 19.492-13.832 35.872-32.176 39.808v-302.824z" fill="#FFD552" p-id="9211"></path><path d="M226.8 634.676H119.028c-15.64 0-28.36-12.704-28.36-28.32v-56.1c0-15.636 12.72-28.36 28.36-28.36H226.8c15.64 0 28.36 12.72 28.36 28.36v56.1c-0.004 15.616-12.724 28.32-28.36 28.32z m-107.772-100.468a16.068 16.068 0 0 0-16.048 16.048v56.1c0 8.828 7.2 16.008 16.048 16.008H226.8a16.048 16.048 0 0 0 16.048-16.008v-56.1c0-8.848-7.2-16.048-16.048-16.048H119.028z" fill="#4A555F" p-id="9212"></path><path d="M226.812 634.692H119.036a28.38 28.38 0 0 1-28.348-28.348v-56.092a28.38 28.38 0 0 1 28.348-28.348h107.776c15.632 0 28.344 12.716 28.344 28.348v56.092c-0.004 15.632-12.716 28.348-28.344 28.348z m-107.776-100.476a16.056 16.056 0 0 0-16.036 16.036v56.092a16.056 16.056 0 0 0 16.036 16.036h107.776a16.052 16.052 0 0 0 16.032-16.036v-56.092a16.052 16.052 0 0 0-16.032-16.036H119.036z" fill="#4A555F" p-id="9213"></path><path d="M226.8 521.896H119.028a28.392 28.392 0 0 0-28.36 28.36v56.1c0 15.616 12.72 28.32 28.36 28.32H226.8c15.64 0 28.36-12.704 28.36-28.32v-56.1c-0.004-15.64-12.724-28.36-28.36-28.36z m-74.012 12.312h36.476v37.936h-36.476v-37.936z m-49.808 16.048c0-8.848 7.2-16.048 16.048-16.048h21.448v37.936h-37.496v-21.888z m0 56.1v-21.9h63.784v37.908H119.028a16.048 16.048 0 0 1-16.048-16.008z m139.864 0c0 8.828-7.2 16.008-16.048 16.008h-47.72v-37.908h63.768v21.9z m0-34.212H201.576v-37.936H226.8c8.848 0 16.048 7.2 16.048 16.048v21.888zM320.052 755.968H90.688v-68.54h229.364v68.54z m-217.052-12.312h204.74v-43.916H103v43.916zM590.08 755.968H360.716v-68.54h229.364v68.54z m-217.052-12.312h204.74v-43.916H373.028v43.916zM860.104 755.968h-229.364v-68.54h229.364v68.54z m-217.052-12.312h204.74v-43.916h-204.74v43.916zM860.104 837.052h-305.236v-43.916h305.236v43.916z m-292.924-12.312h280.612v-19.292h-280.612v19.292z" fill="#4A555F" p-id="9214"></path><path d="M1017.844 242.832v159.36h-73.216V358.812c0-33.816-27.416-61.272-61.232-61.272H79.34V242.832h938.504z" fill="#F68F6F" p-id="9215"></path><path d="M1024 408.348h-85.528V358.812c0-30.392-24.708-55.116-55.076-55.116H73.188V236.676H1024v171.672z m-73.216-12.312h60.904V248.988H85.5v42.396H883.4c37.156 0 67.388 30.248 67.388 67.428v37.224z" fill="#4A555F" p-id="9216"></path><path d="M662.564 485c0 29.9-24.236 54.136-54.136 54.136s-54.136-24.236-54.136-54.136c0-29.9 24.236-54.168 54.136-54.168s54.136 24.268 54.136 54.168z" fill="#E0E0E0" p-id="9217"></path><path d="M833.532 485.004c0 42.472-34.428 76.896-76.896 76.896s-76.896-34.428-76.896-76.896c0-42.472 34.428-76.944 76.896-76.944s76.896 34.472 76.896 76.944z" fill="#71CDE1" p-id="9218"></path><path d="M602.228 568.892a83.944 83.944 0 0 1-13.112-2.032l2.836-11.98a72.416 72.416 0 0 0 11.192 1.736l-0.916 12.276z m13.28-0.06l-1.044-12.268c3.748-0.32 7.504-0.944 11.152-1.86l2.988 11.944a82.412 82.412 0 0 1-13.096 2.184z m-39.024-6.048a82.664 82.664 0 0 1-11.836-6.056l6.476-10.472c3.196 1.976 6.58 3.708 10.064 5.152l-4.704 11.376z m64.712-0.384l-4.856-11.316a71.612 71.612 0 0 0 10.016-5.28l6.588 10.4a83.324 83.324 0 0 1-11.748 6.196z m-87.248-13.532a83.92 83.92 0 0 1-9.32-9.456l9.428-7.924a71.76 71.76 0 0 0 7.948 8.068l-8.056 9.312z m109.604-0.624l-8.144-9.236a71.288 71.288 0 0 0 7.864-8.136l9.508 7.82a83.6 83.6 0 0 1-9.228 9.552z m-126.624-19.644a84.7 84.7 0 0 1-5.896-11.888l11.432-4.58c1.404 3.5 3.096 6.912 5.028 10.14l-10.564 6.328z m-9.832-24.572a83.36 83.36 0 0 1-1.856-13.152l12.288-0.736c0.228 3.756 0.756 7.524 1.584 11.196l-12.016 2.692z m10.66-25.2l-12.248-1.232a84.8 84.8 0 0 1 2.344-13.052l11.912 3.128a71.128 71.128 0 0 0-2.008 11.156z m5.748-21.832l-11.26-4.984c1.788-4.032 3.92-7.964 6.34-11.68l10.316 6.72a70.748 70.748 0 0 0-5.396 9.944z m121.408-14.196a71.424 71.424 0 0 0-7.544-8.444l8.504-8.904c3.188 3.04 6.16 6.372 8.84 9.9l-9.8 7.448z m-109.096-4.7l-9.112-8.28a83.176 83.176 0 0 1 9.68-9.088l7.688 9.616a70.676 70.676 0 0 0-8.256 7.752z m92.768-10.884a71.016 71.016 0 0 0-9.8-5.644l5.268-11.128c3.992 1.888 7.864 4.12 11.516 6.628l-6.984 10.144z m-75.144-3.224l-6.076-10.708a83.576 83.576 0 0 1 12.028-5.616l4.304 11.536a72.12 72.12 0 0 0-10.256 4.788z m54.768-6.42a72.248 72.248 0 0 0-9.824-2.104l-1.28-0.172 1.516-12.216 1.496 0.2c3.884 0.552 7.756 1.38 11.508 2.464l-3.416 11.828z m-33.636-1.456l-2.404-12.076a82.96 82.96 0 0 1 13.192-1.54l0.44 12.304c-3.764 0.136-7.54 0.576-11.228 1.312zM754.372 591.064a107.6 107.6 0 0 1-10.96-0.564l1.268-12.244c3.204 0.332 6.464 0.5 9.696 0.5l1.852-0.02 0.24 12.308c-0.704 0.016-1.4 0.02-2.096 0.02z m15.104-1.064l-1.74-12.188a93.656 93.656 0 0 0 11.296-2.332l3.232 11.88a104.928 104.928 0 0 1-12.788 2.64z m-38.96-1.652a105.056 105.056 0 0 1-12.528-3.74l4.256-11.556a92.32 92.32 0 0 0 11.052 3.3l-2.78 11.996z m64.12-5.196l-4.68-11.388a93.948 93.948 0 0 0 10.372-5.04l6.06 10.716a104.756 104.756 0 0 1-11.752 5.712z m-88.612-3.808a106.24 106.24 0 0 1-11.212-6.7l6.956-10.16c3.168 2.168 6.5 4.16 9.908 5.92l-5.652 10.94z m111.308-9.02l-7.336-9.888a93.832 93.832 0 0 0 8.824-7.432l8.496 8.912a105 105 0 0 1-9.984 8.408z m-132.792-5.676l-9.22-8.32 8.248-9.14 8.748 7.9-7.776 9.56z m151.664-12.304l-9.524-7.804a94.72 94.72 0 0 0 6.756-9.364l10.404 6.576a104.84 104.84 0 0 1-7.636 10.592z m13.924-22.052l-11.14-5.232c1.64-3.492 3.072-7.104 4.252-10.732l11.704 3.812a105.84 105.84 0 0 1-4.816 12.152z m8.092-24.816l-12.092-2.32c0.72-3.764 1.216-7.616 1.472-11.452l12.288 0.82a107.268 107.268 0 0 1-1.668 12.952z m-10.56-25.316a93.452 93.452 0 0 0-1.344-11.468l12.12-2.18c0.76 4.248 1.276 8.604 1.52 12.956l-12.296 0.692z m-4.088-22.664a94.632 94.632 0 0 0-4.116-10.784l11.204-5.092c1.792 3.94 3.36 8.044 4.66 12.2l-11.748 3.676z m-9.54-20.964a92.84 92.84 0 0 0-6.624-9.432l9.612-7.692a104.92 104.92 0 0 1 7.516 10.688l-10.504 6.436z m-148.756-13.9l-9.12-8.268a105.356 105.356 0 0 1 9.348-9.12l8.04 9.324a94.808 94.808 0 0 0-8.268 8.064z m134.376-4.092a94.46 94.46 0 0 0-8.732-7.544l7.456-9.796a106.332 106.332 0 0 1 9.888 8.536l-8.612 8.804z m-116.924-10.956l-6.828-10.24a106.392 106.392 0 0 1 11.296-6.564l5.516 11.008c-3.428 1.712-6.784 3.664-9.984 5.796z m98.592-3.004a93.792 93.792 0 0 0-10.316-5.18l4.832-11.324c3.988 1.704 7.92 3.676 11.68 5.864l-6.196 10.64z m-78.004-7.308l-4.104-11.608a105.112 105.112 0 0 1 12.564-3.58l2.628 12.028c-3.744 0.824-7.476 1.884-11.088 3.16z m56.816-1.736a93.092 93.092 0 0 0-11.276-2.476l1.892-12.164a105.48 105.48 0 0 1 12.768 2.808l-3.384 11.832z m-34.312-3.18l-1.132-12.26a105.516 105.516 0 0 1 13.048-0.4L757.364 392a95.996 95.996 0 0 0-11.544 0.356z" fill="#4A555F" p-id="9219"></path></svg>