<?xml version="1.0" standalone="no"?><!DOCTYPE svg PUBLIC "-//W3C//DTD SVG 1.1//EN" "http://www.w3.org/Graphics/SVG/1.1/DTD/svg11.dtd"><svg t="1568733866464" class="icon" viewBox="0 0 1024 1024" version="1.1" xmlns="http://www.w3.org/2000/svg" p-id="9525" xmlns:xlink="http://www.w3.org/1999/xlink" width="32" height="32"><defs><style type="text/css"></style></defs><path d="M744.803977 248.678076l-235.919977-135.763987-235.561977 136.463987 0.366 272.229973 235.917977 135.761987 235.565977-136.463987z" fill="#FFD452" p-id="9526"></path><path d="M509.646 385.906062l-0.04 271.463974 235.197977-136.463987V248.678076z" fill="#F58E6F" p-id="9527"></path><path d="M773.525974 232.042077L508.836 79.724092 244.560026 232.826077l0.408 305.41797 264.689974 152.317986 264.275974-153.101985-0.408-305.417971z m-263.889974 443.199957l-251.411975-144.675986-0.39-290.099971 251.021975-145.421986 251.411976 144.675986 0.392 290.099971-251.023976 145.421986z" fill="#4A555F" p-id="9528"></path><path d="M763.169975 230.906077L508.846 378.240063 254.520025 230.906077l-6.649999 11.477999 260.975974 151.187986 260.975975-151.187986z" fill="#4A555F" p-id="9529"></path><path d="M503.014001 385.906062h13.265999v296.995971h-13.265999zM232.560027 117.304089l9.525999 9.231999a377.669963 377.669963 0 0 1 9.231999-9.197999l-9.201999-9.556a389.965962 389.965962 0 0 0-9.555999 9.522z m108.61199-78.683993l5.799999 11.931999a366.535964 366.535964 0 0 1 11.783999-5.473999l-5.376-12.127999a386.673962 386.673962 0 0 0-12.207998 5.669999z m-46.659996 26.861998l7.406 11.007999a371.479964 371.479964 0 0 1 10.919998-7.074l-7.017999-11.257999a391.179962 391.179962 0 0 0-11.307999 7.324z m-21.827998 15.815998l8.154 10.465999a378.885963 378.885963 0 0 1 10.409999-7.823999l-7.786-10.739999a387.363962 387.363962 0 0 0-10.777999 8.097999z m44.691996-30.065997l6.619999 11.495999a371.693964 371.693964 0 0 1 11.381999-6.292l-6.217999-11.719998a398.947961 398.947961 0 0 0-11.783999 6.515999z m126.151988-45.589996l2.257999 13.071999c4.27-0.736 8.559999-1.402 12.875999-1.992l-1.802-13.143998c-4.466 0.614-8.911999 1.3-13.331998 2.063999zM470.264004 1.9861l1.338 13.199999c4.308-0.438 8.635999-0.802 12.983999-1.09l-0.876-13.237999c-4.504 0.298-8.987999 0.674-13.445999 1.128z m-53.149995 9.179999l3.17 12.881999c4.206-1.036 8.441999-2 12.703999-2.892l-2.716-12.985999c-4.416 0.926-8.801999 1.926-13.157999 2.996z m-25.961997 7.367999l4.071999 12.625999a367.689964 367.689964 0 0 1 12.467999-3.778l-3.623999-12.761998a385.011962 385.011962 0 0 0-12.915999 3.913999z m-25.377998 9.177999l4.95 12.309999a366.539964 366.539964 0 0 1 12.169999-4.645999l-4.512-12.475999a388.669962 388.669962 0 0 0-12.607999 4.811999zM147.004036 253.642075l12.461998 4.548c1.496-4.1 3.062-8.165999 4.694-12.195999l-12.297999-4.976a394.389961 394.389961 0 0 0-4.857999 12.623999z m-19.543998 78.467993l13.135998 1.835999c0.604-4.318 1.28-8.609999 2.026-12.877998l-13.067999-2.28a392.951962 392.951962 0 0 0-2.093999 13.321999z m4.663999-26.575998l12.977999 2.746c0.902-4.258 1.878-8.491999 2.924-12.695999l-12.873999-3.202a377.867963 377.867963 0 0 0-3.028 13.151999z m82.333992-168.213983l10.143999 8.547999c2.8-3.322 5.657999-6.595999 8.571999-9.817999l-9.837999-8.899999a386.259962 386.259962 0 0 0-8.877999 10.169999zM124.666038 358.948065l13.235999 0.912c0.298-4.35 0.674-8.677999 1.119999-12.985999l-13.197998-1.364a401.003961 401.003961 0 0 0-1.158 13.437999z m-0.926 26.957997h13.265999c0-4.362 0.074-8.705999 0.222-13.031998l-13.257999-0.456a397.555961 397.555961 0 0 0-0.23 13.487998z m14.901998-106.559989l12.751999 3.653999a372.159964 372.159964 0 0 1 3.808-12.457998l-12.613999-4.102a380.663963 380.663963 0 0 0-3.946 12.905999zM497.182001 0.1961l0.424 13.259999c3.996-0.128 7.933999-0.264 12.041999-0.19h0.986L510.678 0.0001h-1.028a378.719963 378.719963 0 0 0-12.467999 0.196zM182.628032 180.914082l11.231999 7.056a370.755964 370.755964 0 0 1 7.131999-10.923999l-10.981999-7.442a391.759962 391.759962 0 0 0-7.381999 11.309999z m15.157999-22.359997l10.713999 7.823999a371.923964 371.923964 0 0 1 7.871999-10.395999l-10.433999-8.191999a391.569962 391.569962 0 0 0-8.151999 10.763999z m-40.617996 70.013993l12.107998 5.417999a372.227964 372.227964 0 0 1 5.54-11.825999l-11.913999-5.837999a385.641962 385.641962 0 0 0-5.733999 12.245999z m11.895998-24.281998l11.697999 6.255999a378.747963 378.747963 0 0 1 6.352-11.403998l-11.473999-6.654a395.955961 395.955961 0 0 0-6.576 11.801999zM252.000025 98.59809l8.862 9.873999a369.787964 369.787964 0 0 1 9.843999-8.529999l-8.512-10.173999A395.899961 395.899961 0 0 0 252.000025 98.59809z m599.311942 107.73199l-11.737999 6.181999a372.539964 372.539964 0 0 1 5.853999 11.605999l11.947999-5.765999a381.695963 381.695963 0 0 0-6.063999-12.021999zM788.479973 119.118088l-9.581999 9.171999c3 3.136 5.947999 6.325999 8.837999 9.566l9.901999-8.828a376.259963 376.259963 0 0 0-9.157999-9.909999z m74.533993 111.457989l-12.143999 5.344a360.761965 360.761965 0 0 1 5.021999 11.977999l12.323999-4.912a385.319962 385.319962 0 0 0-5.201999-12.409999z m-56.571995-91.333991l-10.199999 8.484a375.667963 375.667963 0 0 1 8.155999 10.155999l10.483999-8.128a391.819962 391.819962 0 0 0-8.439999-10.511999z m16.507999 21.309998l-10.761999 7.756a365.839964 365.839964 0 0 1 7.421999 10.689999l11.027999-7.372a387.191962 387.191962 0 0 0-7.687999-11.073999z m14.983998 22.399998l-11.275999 6.989999a368.619964 368.619964 0 0 1 6.654 11.173999l11.517998-6.587999a381.999963 381.999963 0 0 0-6.895999-11.575999z m54.173995 151.185985l-13.149999 1.762c0.574 4.292 1.078 8.605999 1.508 12.943999l13.199999-1.304a387.697962 387.697962 0 0 0-1.558-13.401999z m2.652 26.847998l-13.239999 0.844c0.276 4.32 0.478 8.657999 0.602 13.017998l13.261999-0.38a389.799962 389.799962 0 0 0-0.624-13.481998z m-13.551999-79.673992l-12.769999 3.589999a367.377964 367.377964 0 0 1 3.302 12.601999l12.889999-3.136a380.013963 380.013963 0 0 0-3.422-13.055998z m6.383999 26.221997l-12.993998 2.682c0.876 4.24 1.68 8.507999 2.407999 12.799998l13.079999-2.215999a382.035963 382.035963 0 0 0-2.494-13.265999z m-14.591998-51.927995l-12.487999 4.478a368.019964 368.019964 0 0 1 4.182 12.339998l12.635998-4.035999a383.769963 383.769963 0 0 0-4.329999-12.781999zM650.471986 40.794096c4.038 1.648 8.035999 3.366 11.997999 5.15l5.45-12.095999a380.129963 380.129963 0 0 0-12.429999-5.336l-5.018 12.281999z m-24.517997-9.019999c4.148 1.36 8.261999 2.792 12.341999 4.293999l4.581999-12.449998a382.839963 382.839963 0 0 0-12.785999-4.448l-4.137999 12.603999z m-25.025998-7.247999c4.222 1.062 8.413999 2.198 12.575999 3.403999l3.692-12.741998a387.759962 387.759962 0 0 0-13.027999-3.526l-3.24 12.863999z m-25.471997-5.47c4.288 0.764 8.547999 1.6 12.783999 2.51l2.785999-12.969999a386.163962 386.163962 0 0 0-13.241998-2.6l-2.328 13.059999z m193.701981 81.229992l-8.925999 9.815999a374.005963 374.005963 0 0 1 9.487999 8.933999l9.263999-9.497999a389.867962 389.867962 0 0 0-9.825999-9.251999zM523.665999 13.524099c4.356 0.16 8.691999 0.396 13.009999 0.706l0.949999-13.231999c-4.47-0.32-8.959999-0.564-13.467998-0.732l-0.492 13.257999z m25.995997 1.863999c4.332 0.464 8.643999 1 12.927999 1.61l1.87-13.133998a383.035963 383.035963 0 0 0-13.391999-1.666l-1.406 13.189998z m169.661984 62.423994a370.269964 370.269964 0 0 1 10.647999 7.536l7.849999-10.691999a388.063962 388.063962 0 0 0-11.021999-7.804l-7.475999 10.959999z m-45.041996-26.297997c3.906 1.928 7.773999 3.922 11.599999 5.977999l6.287999-11.681998a380.175963 380.175963 0 0 0-12.017998-6.194l-5.87 11.897999z m66.063994 41.733996a373.881963 373.881963 0 0 1 10.091999 8.253999l8.575999-10.119999a382.795963 382.795963 0 0 0-10.449999-8.547999l-8.217999 10.413999z m-43.075996-29.373997a368.391964 368.391964 0 0 1 11.149999 6.775999l7.085999-11.213999a385.683962 385.683962 0 0 0-11.547999-7.017999l-6.687999 11.455999z" fill="#4A555F" p-id="9530"></path><path d="M928.161959 346.274066l-38.171996 46.613996-43.541996-38.807997-8.825999 9.905999 53.865995 48.009996 46.939995-57.315995zM533.359998 768.624025l-197.409981-102.99799H15.542048v13.265999h317.15597l194.523981 101.49199a45.171996 45.171996 0 0 1 24.353997 40.173996c0 15.643998-7.897999 29.969997-21.127998 38.319996-13.231999 8.351999-29.559997 9.315999-43.681996 2.586l-167.633983-79.891992-5.71 11.973999 167.633984 79.891992a58.583994 58.583994 0 0 0 25.239998 5.741999c10.863999-0.002 21.673998-3.052 31.229997-9.083999 17.103998-10.793999 27.313997-29.313997 27.313997-49.539995a58.391994 58.391994 0 0 0-31.479997-51.931995z" fill="#4A555F" p-id="9531"></path><path d="M1003.101952 764.040025c-13.437999-29.821997-47.569995-43.227996-77.715992-30.515997L650.395986 849.500017c-78.171992 32.971997-137.981987 31.381997-199.97198-5.323999l-6.757999 11.415998c43.855996 25.967997 107.571989 50.127995 211.885979 6.132l274.987973-115.975989c23.455998-9.887999 50.007995 0.54 60.461994 23.743998 10.397999 23.079998 0.712 49.837995-22.051998 60.911994l-320.437968 155.905985a241.879976 241.879976 0 0 1-202.017981 4.521999L178.276033 874.864015H15.542048v13.265998h159.987985l265.703974 114.873989A255.255975 255.255975 0 0 0 542.593997 1024a255.279975 255.279975 0 0 0 111.723989-25.763997l320.437969-155.905985c29.259997-14.233999 41.709996-48.623995 28.345997-78.289993z" fill="#4A555F" p-id="9532"></path><path d="M974.449955 776.946024c-4.746-10.525999-14.929999-16.739998-25.723998-16.739998a28.579997 28.579997 0 0 0-11.127999 2.272l-274.989973 115.977988c-46.693995 19.693998-85.569992 27.043997-118.061988 27.043998-51.047995 0-86.329992-18.147998-111.381989-35.071997l-127.555988-60.487994 21.333998-44.761996 167.633984 79.891992c3.796 1.81 7.785999 2.708 11.747999 2.708 4.992 0 9.941999-1.426 14.425998-4.257999 8.047999-5.078 12.661999-13.447999 12.661999-22.963998 0-10.151999-5.593999-19.375998-14.595999-24.071998l-190.575981-99.43399-146.617986-0.002H15.542048v161.691984h166.083984l272.079974 115.413989a223.849978 223.849978 0 0 0 88.887991 18.415998 223.779978 223.779978 0 0 0 97.97599-22.595998l320.439969-155.903984a28.209997 28.209997 0 0 0 13.439999-37.123997z" fill="#DFDFDF" p-id="9533"></path></svg>