<?xml version="1.0" standalone="no"?><!DOCTYPE svg PUBLIC "-//W3C//DTD SVG 1.1//EN" "http://www.w3.org/Graphics/SVG/1.1/DTD/svg11.dtd"><svg t="1568788850039" class="icon" viewBox="0 0 1024 1024" version="1.1" xmlns="http://www.w3.org/2000/svg" p-id="14461" width="16" height="16" xmlns:xlink="http://www.w3.org/1999/xlink"><defs><style type="text/css"></style></defs><path d="M64 1024a64 64 0 0 1-64-64V320L256 0h512a64 64 0 0 1 64 64v384a32 32 0 1 1-64 0V64H320v320H64v576h576a32 32 0 1 1 0 64H64z m32-704h160V96l-160 224z m672 448v-160a32 32 0 1 1 64 0v160h160a32 32 0 1 1 0 64h-160v160a32 32 0 1 1-64 0v-160h-160a32 32 0 1 1 0-64h160z" fill="#1296db" p-id="14462"></path></svg>