<?xml version="1.0" standalone="no"?><!DOCTYPE svg PUBLIC "-//W3C//DTD SVG 1.1//EN" "http://www.w3.org/Graphics/SVG/1.1/DTD/svg11.dtd"><svg t="1568734476940" class="icon" viewBox="0 0 1024 1024" version="1.1" xmlns="http://www.w3.org/2000/svg" p-id="9650" xmlns:xlink="http://www.w3.org/1999/xlink" width="32" height="32"><defs><style type="text/css"></style></defs><path d="M801.50911 573.159249l27.143228-27.147228 64.196716 64.192716-27.151227 27.147228zM479.165772 1024l-64.196716-64.196715 335.956945-335.952946 64.192716 64.192716z" fill="#F68F6F" p-id="9651"></path><path d="M771.114453 542.624617l124.994028 124.994028-50.619102 50.619102-124.994029-124.994028z" fill="#E0E0E0" p-id="9652"></path><path d="M771.154446 542.704603l-2.799508 2.799508s-93.18362-101.182214-219.161476-29.194868c0 0 78.386221-16.797047 171.569841 76.786502l50.391143-50.391142zM895.932512 667.482669l-2.799508 2.799508s101.182214 93.18362 29.194868 219.161475c0 0 16.797047-78.386221-76.786502-171.569841l50.391142-50.391142z" fill="#E0E0E0" p-id="9653"></path><path d="M840.742213 723.072897L715.964147 598.294831v-9.998243l50.391142-50.391142h9.998243l124.778066 124.778067v9.998242l-50.391142 50.391142h-9.998243z m-109.980667-129.977152l115.179753 115.179753 40.3929-40.392899-115.179753-115.179754-40.3929 40.3929z" fill="#4A555F" p-id="9654"></path><path d="M725.56246 598.294831h-9.998243c-65.9884-65.9884-123.178348-75.586713-151.573356-75.586713-8.798453 0-13.59761 1.199789-13.99754 1.199789l-4.799156-12.797751c31.194517-17.596907 62.788963-26.79529 94.783339-26.795289 79.186081 0 130.777012 54.790369 133.17659 57.189947v3.999297l2.799508 2.799508-50.391142 49.991212z m-145.174481-88.784393c32.394306 3.599367 83.585307 19.196626 140.375324 73.986994l37.593392-37.593392c-13.997539-12.79775-57.989806-47.991564-117.979261-47.991564-19.996485 0-39.99297 3.599367-59.989455 11.597962zM928.326818 893.442949l-12.797751-4.799156c0-0.799859 14.397469-75.986643-74.786854-165.170966v-9.998242l50.391142-50.391143 4.799157 4.799157 1.999648-1.999649c0.799859 0.39993 104.381652 98.382706 30.394658 227.559999z m-72.787206-175.169208c55.190299 57.189947 70.387627 108.380949 73.986995 139.975395 34.393954-90.384112-19.596555-159.172021-36.393603-177.568787l-37.593392 37.593392z" fill="#4A555F" p-id="9655"></path><path d="M382.822707 1005.423265H69.277822V0h783.462282v502.711633h-13.997539V13.997539H83.275362v977.028257h299.547345zM852.740104 1005.423265h-282.750298v-14.397469h268.752759v-206.363725h13.997539z" fill="#4A555F" p-id="9656"></path><path d="M216.052022 260.354235h67.988049v136.775957H216.052022z" fill="#F68F6F" p-id="9657"></path><path d="M357.627136 119.97891h67.988049v277.151282h-67.988049z" fill="#FFD552" p-id="9658"></path><path d="M357.627136 119.97891h67.988049v277.151282h-67.988049z" fill="#FFD552" p-id="9659"></path><path d="M499.602179 335.141088h67.988049v61.989104h-67.988049z" fill="#E0E0E0" p-id="9660"></path><path d="M641.177293 166.770685h67.988049v230.359507h-67.988049z" fill="#71CDE1" p-id="9661"></path><path d="M291.238806 404.328927H209.253217V253.55543h81.985589v150.773497z m-67.988049-13.99754h53.990509V267.552969H223.250757v122.778418z" fill="#4A555F" p-id="9662"></path><path d="M432.813919 404.328927H350.828331V113.180105h81.985588v291.148822z m-67.988049-13.99754h53.99051V127.177645H364.82587v263.153742z" fill="#4A555F" p-id="9663"></path><path d="M574.389033 404.328927h-81.985588v-75.986643h81.985588v75.986643z m-67.988049-13.99754h53.99051v-47.991564h-53.99051v47.991564z" fill="#4A555F" p-id="9664"></path><path d="M716.364077 404.328927h-81.985589V159.97188h81.985589v244.357047zM647.976098 390.331387h53.990509V173.969419H647.976098v216.361968z" fill="#4A555F" p-id="9665"></path><path d="M216.052022 495.512898h256.354938v13.99754H216.052022z" fill="#4A555F" p-id="9666"></path><path d="M216.052022 599.89455h349.938487v13.997539H216.052022z" fill="#4A555F" p-id="9667"></path><path d="M216.052022 704.276201h289.149173v13.99754H216.052022z" fill="#4A555F" p-id="9668"></path><path d="M216.052022 808.257923h209.963093v13.99754H216.052022z" fill="#4A555F" p-id="9669"></path></svg>