<?xml version="1.0" standalone="no"?><!DOCTYPE svg PUBLIC "-//W3C//DTD SVG 1.1//EN" "http://www.w3.org/Graphics/SVG/1.1/DTD/svg11.dtd"><svg t="1568860834491" class="icon" viewBox="0 0 1024 1024" version="1.1" xmlns="http://www.w3.org/2000/svg" p-id="1767" width="32" height="32" xmlns:xlink="http://www.w3.org/1999/xlink"><defs><style type="text/css"></style></defs><path d="M608 435.584h128.128c35.328 0 45.44-21.504 22.592-48.128L553.28 147.84a52.992 52.992 0 0 0-82.56 0l-205.44 239.68c-22.4 26.112-12.672 48.128 22.592 48.128H416V691.2a32 32 0 0 0 31.68 32.448h128.64c17.92 0 31.68-14.528 31.68-32.448V435.584zM0 64.064C0 28.672 28.48 0 64 0h896c35.328 0 64 28.48 64 64v896c0 35.328-28.48 64-64 64H64c-35.328 0-64-28.48-64-64V64z m128 755.52c0 26.752 21.504 48 48 48h672c26.688 0 48-21.44 48-48a47.872 47.872 0 0 0-48-48H176a47.936 47.936 0 0 0-48 48z" p-id="1768" fill="#1296db"></path></svg>