<?xml version="1.0" standalone="no"?><!DOCTYPE svg PUBLIC "-//W3C//DTD SVG 1.1//EN" "http://www.w3.org/Graphics/SVG/1.1/DTD/svg11.dtd"><svg t="1568860785731" class="icon" viewBox="0 0 1024 1024" version="1.1" xmlns="http://www.w3.org/2000/svg" p-id="1808" width="32" height="32" xmlns:xlink="http://www.w3.org/1999/xlink"><defs><style type="text/css"></style></defs><path d="M0 0h1024v1024H0z" fill="#1296db" fill-opacity="0" p-id="1809"></path><path d="M919.544 682.667H787.122c-34.076 0-61.789 27.716-61.789 61.771v132.435c0 34.078 27.714 61.794 61.789 61.794h132.422c34.076 0 61.789-27.716 61.789-61.794V744.438c0-34.055-27.713-61.771-61.789-61.771zM924 881.328H782.688V740.003H924v141.325zM236.878 682.667H104.456c-34.076 0-61.789 27.716-61.789 61.771v132.435c0 34.078 27.714 61.794 61.789 61.794h132.422c34.076 0 61.789-27.716 61.789-61.794V744.438c0-34.055-27.714-61.771-61.789-61.771z m4.434 198.661H100V740.003h141.312v141.325zM510.234 631.467c17.849 0 32.368-16.768 32.368-37.38V421.38c0-20.584-14.519-37.38-32.368-37.38-17.849 0-32.368 16.797-32.368 37.38v172.706c0.001 20.613 14.52 37.381 32.368 37.381M311.469 400.144c-5.631-5.107-12.471-7.61-19.289-7.61-8.609 0-17.125 3.969-23.081 11.656L135.033 577.733c-5.165 6.7-7.632 15.17-6.91 23.867 0.675 8.723 4.467 16.586 10.633 22.199 6.166 5.613 13.914 8.318 21.964 7.534 8.004-0.759 15.263-4.854 20.429-11.529l134.042-173.62c10.657-13.804 8.982-34.461-3.722-46.04M823.736 619.767c5.166 6.7 12.427 10.797 20.41 11.58 7.866 0.733 15.802-1.922 21.969-7.535s9.937-13.477 10.635-22.175c0.721-8.698-1.745-17.168-6.912-23.869L735.837 404.24c-5.166-6.726-12.427-10.822-20.41-11.58a22.364 22.364 0 0 0-2.583-0.126c-7.028 0-13.987 2.705-19.363 7.636h-0.023c-6.074 5.537-9.961 13.628-10.682 22.225-0.675 8.723 1.792 17.219 6.958 23.894l134.002 173.478zM611.477 85.333H411.935c-16.591 0-32.159 6.836-43.872 19.276-11.737 12.464-18.195 29.018-18.195 46.615V292.51c0 17.596 6.458 34.151 18.195 46.591 11.714 12.44 27.281 19.299 43.872 19.299h199.542c34.229 0 62.068-29.565 62.068-65.891V151.224c-0.001-36.328-27.839-65.891-62.068-65.891z m4.476 211.907H407.479V146.492h208.474V297.24zM578.211 682.667H445.789c-34.076 0-61.789 27.716-61.789 61.771v132.435c0 34.078 27.714 61.794 61.789 61.794h132.422c34.076 0 61.789-27.716 61.789-61.794V744.438c0-34.055-27.714-61.771-61.789-61.771z m4.456 198.661H441.354V740.003h141.313v141.325z" p-id="1810" fill="#1296db"></path></svg>