<?xml version="1.0" standalone="no"?><!DOCTYPE svg PUBLIC "-//W3C//DTD SVG 1.1//EN" "http://www.w3.org/Graphics/SVG/1.1/DTD/svg11.dtd"><svg t="1568860778463" class="icon" viewBox="0 0 1024 1024" version="1.1" xmlns="http://www.w3.org/2000/svg" p-id="16705" width="32" height="32" xmlns:xlink="http://www.w3.org/1999/xlink"><defs><style type="text/css"></style></defs><path d="M864.376471 12.047059c-12.047059-3.011765-27.105882-3.011765-39.152942-3.011765H174.682353c-30.117647 0-57.223529 15.058824-75.294118 39.152941-15.058824 21.082353-24.094118 48.188235-24.094117 75.294118v777.035294c0 30.117647 9.035294 54.211765 27.105882 78.305882 18.070588 24.094118 45.176471 36.141176 75.294118 36.141177h650.541176c15.058824 0 27.105882 0 42.164706-3.011765 21.082353-3.011765 42.164706-18.070588 57.223529-36.141176 15.058824-21.082353 24.094118-48.188235 24.094118-75.294118V126.494118C948.705882 72.282353 915.576471 18.070588 864.376471 12.047059zM150.588235 945.694118c3.011765 3.011765 3.011765 0 0 0z m737.882353-21.082353c0-6.023529 0-3.011765 0 0z m3.011765-18.070589v9.035295c0 3.011765 0 6.023529-3.011765 9.035294 0 3.011765-3.011765 3.011765-3.011764 6.023529l-3.011765 6.02353c0 3.011765-3.011765 3.011765-3.011765 6.023529l-6.023529 6.023529c-3.011765 0-3.011765 3.011765-6.02353 3.011765h-3.011764c-3.011765 0-6.023529 3.011765-9.035295 3.011765h-3.011764H174.682353h-3.011765-3.011764c-3.011765 0-6.023529-3.011765-9.035295-3.011765 0 0-3.011765 0-3.011764-3.011765-3.011765 0-3.011765-3.011765-6.02353-3.011764s-3.011765-3.011765-3.011764-3.011765-3.011765-3.011765-3.011765-6.023529-3.011765-3.011765-3.011765-6.02353l-3.011765-6.023529c0-3.011765-3.011765-6.023529-3.011764-9.035294v-6.02353V123.482353v-9.035294-3.011765c0-3.011765 0-6.023529 3.011764-6.023529 0-3.011765 3.011765-6.023529 3.011765-9.035294 0-3.011765 3.011765-3.011765 3.011765-6.02353l3.011765-6.023529 6.023529-6.02353c-3.011765 3.011765-3.011765 0-3.011765 0 3.011765-3.011765 6.023529-3.011765 9.035294-6.023529h3.011765c3.011765 0 3.011765 0 6.02353-3.011765H855.341176c3.011765 0 6.023529 3.011765 9.035295 3.011765 3.011765 0 3.011765 3.011765 6.023529 3.011765l6.023529 3.011764 3.011765 3.011765 6.02353 6.023529c0 3.011765 3.011765 6.023529 3.011764 6.02353s0 3.011765 3.011765 3.011765c0 3.011765 3.011765 6.023529 3.011765 9.035294V900.517647c-3.011765 3.011765-3.011765 6.023529-3.011765 6.023529zM252.988235 602.352941h370.447059c15.058824 0 27.105882-12.047059 27.105882-30.117647 0-15.058824-12.047059-30.117647-27.105882-30.117647H252.988235c-15.058824 0-27.105882 12.047059-27.105882 30.117647-3.011765 15.058824 9.035294 30.117647 27.105882 30.117647z m518.02353 90.352941H252.988235c-15.058824 0-27.105882 12.047059-27.105882 30.117647 0 15.058824 12.047059 30.117647 27.105882 30.117647h521.035294c15.058824 0 27.105882-12.047059 27.105883-30.117647 0-15.058824-12.047059-30.117647-30.117647-30.117647zM280.094118 382.494118c15.058824 0 30.117647-6.023529 39.152941-15.058824 9.035294-9.035294 15.058824-24.094118 15.058823-39.152941s-6.023529-30.117647-15.058823-39.152941c-9.035294-12.047059-24.094118-18.070588-39.152941-18.070588s-30.117647 6.023529-39.152942 18.070588c-9.035294 9.035294-15.058824 24.094118-15.058823 39.152941s6.023529 30.117647 15.058823 39.152941c9.035294 9.035294 24.094118 15.058824 39.152942 15.058824z m222.870588 0c15.058824 0 30.117647-6.023529 39.152941-15.058824 9.035294-9.035294 15.058824-24.094118 15.058824-39.152941s-6.023529-30.117647-15.058824-39.152941c-9.035294-12.047059-24.094118-18.070588-39.152941-18.070588s-30.117647 6.023529-39.152941 15.058823c-9.035294 9.035294-15.058824 24.094118-15.058824 39.152941s6.023529 30.117647 15.058824 39.152941c12.047059 12.047059 24.094118 18.070588 39.152941 18.070589z m222.870588 0c15.058824 0 30.117647-6.023529 39.152941-15.058824 9.035294-9.035294 15.058824-24.094118 15.058824-39.152941s-6.023529-30.117647-15.058824-39.152941c-9.035294-12.047059-24.094118-18.070588-39.152941-18.070588s-30.117647 6.023529-39.152941 15.058823c-9.035294 9.035294-15.058824 24.094118-15.058824 39.152941s6.023529 30.117647 15.058824 39.152941c12.047059 12.047059 24.094118 18.070588 39.152941 18.070589z" p-id="16706" fill="#1296db"></path></svg>