<?xml version="1.0" standalone="no"?><!DOCTYPE svg PUBLIC "-//W3C//DTD SVG 1.1//EN" "http://www.w3.org/Graphics/SVG/1.1/DTD/svg11.dtd"><svg t="1568860821537" class="icon" viewBox="0 0 1024 1024" version="1.1" xmlns="http://www.w3.org/2000/svg" p-id="1953" width="32" height="32" xmlns:xlink="http://www.w3.org/1999/xlink"><defs><style type="text/css"></style></defs><path d="M928 960h-64v64h64c54.4 0 96-41.6 96-96s-41.6-96-96-96c-19.2 0-32-12.8-32-32s12.8-32 32-32h64v-64h-64c-54.4 0-96 41.6-96 96s41.6 96 96 96c19.2 0 32 12.8 32 32s-12.8 32-32 32zM576 864v64c0 51.2 41.6 96 96 96s96-41.6 96-96v-160h32v-64h-128v64h32v160c0 16-12.8 32-32 32-16 0-32-12.8-32-32v-64h-64z" p-id="1954" fill="#1296db"></path><path d="M512 960H64V256h896v384h64V0H0v1024h512v-64zM64 64h896v128H64V64z" p-id="1955" fill="#1296db"></path><path d="M128 96h64v64H128zM256 96h64v64H256zM384 96h64v64h-64z" p-id="1956" fill="#1296db"></path></svg>