<?xml version="1.0" standalone="no"?><!DOCTYPE svg PUBLIC "-//W3C//DTD SVG 1.1//EN" "http://www.w3.org/Graphics/SVG/1.1/DTD/svg11.dtd"><svg t="1568860848088" class="icon" viewBox="0 0 1024 1024" version="1.1" xmlns="http://www.w3.org/2000/svg" p-id="1896" width="32" height="32" xmlns:xlink="http://www.w3.org/1999/xlink"><defs><style type="text/css"></style></defs><path d="M960 128H149.334v42.666H960c11.782 0 21.334 9.552 21.334 21.334v320H1024V192c0-35.346-28.654-64-64-64zM85.334 853.334c-23.564 0-42.666-19.102-42.666-42.666 0-23.564 19.102-42.666 42.666-42.666C108.898 768 128 787.102 128 810.666h42.666c0-47.128-38.204-85.334-85.334-85.334S0 763.538 0 810.666C0 857.796 38.206 896 85.334 896h469.334v-42.666H85.334z" p-id="1897" fill="#1296db"></path><path d="M85.334 42.666C38.206 42.666 0 80.872 0 128v682.666h42.666V128c0-23.564 19.102-42.666 42.666-42.666C108.898 85.334 128 104.436 128 128v682.666h42.666V128c0-47.128-38.204-85.334-85.332-85.334zM661.334 384h-256c-11.782 0-21.334 9.552-21.334 21.334v256c0 11.782 9.552 21.334 21.334 21.334h256c11.782 0 21.334-9.552 21.334-21.334v-256c-0.002-11.782-9.552-21.334-21.334-21.334zM640 640H426.666V426.666H640V640z" p-id="1898" fill="#1296db"></path><path d="M548.416 240.918c-8.33-8.328-21.834-8.328-30.166 0l-192 192 30.166 30.166 176.918-176.918 176.918 176.918 30.166-30.166-192.002-192zM490.666 490.666c-11.782 0-21.334 9.552-21.334 21.334v149.334H512v-128h64v-42.666h-85.334zM1017.75 622.358l-61.44-61.44c-8.33-8.328-21.834-8.328-30.166 0l-322.56 322.56c-8.328 8.33-8.328 21.834 0 30.166l61.44 61.44c4 4 9.426 6.25 15.082 6.25a21.34 21.34 0 0 0 15.082-6.25l322.56-322.56c8.33-8.332 8.33-21.836 0.002-30.166zM680.106 929.834l-31.274-31.274 292.394-292.394 31.274 31.274-292.394 292.394z" p-id="1899" fill="#1296db"></path><path d="M640 938.666V896h-42.666v64c0 11.782 9.552 21.334 21.334 21.334h64v-42.666H640zM981.334 725.334V832c0 11.782-9.552 21.334-21.334 21.334h-128V896h128c35.346 0 64-28.654 64-64v-106.666h-42.666zM213.334 746.666H384v42.666h-170.666zM426.666 746.666h42.666v42.666h-42.666zM874.666 213.334H832V256h42.666c11.782 0 21.334 9.552 21.334 21.334V320h42.666v-42.666c0-35.346-28.654-64-64-64z" p-id="1900" fill="#1296db"></path></svg>