<?xml version="1.0" standalone="no"?><!DOCTYPE svg PUBLIC "-//W3C//DTD SVG 1.1//EN" "http://www.w3.org/Graphics/SVG/1.1/DTD/svg11.dtd"><svg t="1568860807322" class="icon" viewBox="0 0 1024 1024" version="1.1" xmlns="http://www.w3.org/2000/svg" p-id="1192" width="32" height="32" xmlns:xlink="http://www.w3.org/1999/xlink"><defs><style type="text/css"></style></defs><path d="M68.266667 135.987109C68.266667 60.893826 129.297026 0 205.004709 0h613.989991C894.497583 0 955.732742 60.962093 955.732742 135.987109v752.025099c0 75.093283-61.030359 135.987109-136.738042 135.987109H205.004709A136.396709 136.396709 0 0 1 68.266667 888.012208V135.987109z m68.266621 0.477867V887.466075c0 37.683175 30.446913 68.198355 67.993554 68.198355h614.945724c37.614908 0 67.993555-30.51518 67.993555-68.198355V136.533242A68.061821 68.061821 0 0 0 819.472566 68.266621H204.526842A67.993555 67.993555 0 0 0 136.533288 136.464976zM273.06653 307.199795c0-18.841587 15.906123-34.133311 34.338111-34.13331h409.190127c18.978121 0 34.33811 15.837856 34.33811 34.13331 0 18.841587-15.906123 34.133311-34.33811 34.133311H307.404641A34.611177 34.611177 0 0 1 273.06653 307.199795z m0 204.799864c0-18.841587 14.677324-34.133311 33.996777-34.133311h273.339552c18.773321 0 33.996777 15.837856 33.996777 34.133311 0 18.841587-14.677324 34.133311-33.996777 34.13331H307.063307A34.406377 34.406377 0 0 1 273.06653 511.999659z m0 204.799863c0-18.841587 14.74559-34.133311 33.791978-34.13331h137.215908c18.636788 0 33.791977 15.837856 33.791978 34.13331 0 18.841587-14.74559 34.133311-33.791978 34.133311h-137.215908A34.33811 34.33811 0 0 1 273.06653 716.799522z" p-id="1193" fill="#1296db"></path></svg>