<?xml version="1.0" standalone="no"?><!DOCTYPE svg PUBLIC "-//W3C//DTD SVG 1.1//EN" "http://www.w3.org/Graphics/SVG/1.1/DTD/svg11.dtd"><svg t="1568621170930" class="icon" viewBox="0 0 1058 1024" version="1.1" xmlns="http://www.w3.org/2000/svg" p-id="1866" width="16.53125" height="16" xmlns:xlink="http://www.w3.org/1999/xlink"><defs><style type="text/css"></style></defs><path d="M337.492942 988.321752a191.953149 24.875836 0 1 0 383.906299 0 191.953149 24.875836 0 1 0-383.906299 0Z" fill="#EFEFEF" p-id="1867"></path><path d="M529.446091 1023.966348a1116.505049 1116.505049 0 0 1-137.086316-7.376601c-54.651458-7.053538-65.635593-16.15314-65.635593-28.267995s10.76876-21.160614 65.635593-28.267996a1127.973779 1127.973779 0 0 1 137.086316-7.3766 1127.973779 1127.973779 0 0 1 137.086317 7.3766c54.651458 7.107382 65.635593 16.15314 65.635593 28.267996s-10.76876 21.214457-65.635593 28.267995a1116.505049 1116.505049 0 0 1-137.086317 7.376601z m-172.300162-35.644596c24.283554 6.892006 85.827018 14.107076 172.300162 14.107075s148.016608-7.215069 172.300162-14.107075c-24.283554-6.892006-85.827018-14.107076-172.300162-14.107076s-148.016608 7.215069-172.300162 14.107076z" fill="#231815" p-id="1868"></path><path d="M398.821031 317.643371a25.252742 25.252742 0 0 1-1.238407 5.38438c-3.176784 9.63804-12.276387 15.668546-19.868363 13.084044s-11.361042-12.760981-8.184257-22.399021a18.899174 18.899174 0 0 1 16.15314-13.676326 8.776539 8.776539 0 0 1 3.607534 0.646126 15.776234 15.776234 0 0 1 9.530353 16.960797zM838.186444 429.315414c-5.38438 11.737949-21.052926 41.675102-47.59792 47.544076-15.668546 3.446003-35.806127-2.422971-52.443861-15.507015a86.688519 86.688519 0 0 1-33.437001-66.281718c-1.023032-45.874918-31.44478-63.374153-53.8438-76.135135-14.376295-8.291945-23.206678-13.784013-24.983524-21.914426a5.38438 5.38438 0 0 1 1.238408-4.630567c8.938071-13.730169 46.736419-27.568026 73.981382-34.13697a352.030768 352.030768 0 0 1 137.086316 171.061755zM391.067524 772.300424a82.757922 82.757922 0 0 1-31.660155 21.214457c-16.476203 6.892006-59.228181 19.922206-101.764783-4.684411a347.830952 347.830952 0 0 1-86.150081-163.415934 118.456361 118.456361 0 0 0 96.05734-2.207596c15.560858-6.838163 27.514182-7.753507 35.483065-2.530659 11.89948 7.753507 16.422359 30.206372 16.422359 43.613479 0 1.938377-0.592282 6.353568-1.13072 10.76876-2.961409 21.53752-7.915039 57.505179 12.922512 80.119575 11.953324 12.868668 29.721778 18.737643 53.143832 17.445391a44.20576 44.20576 0 0 1 6.676631-0.323062zM796.080592 751.516717a348.154015 348.154015 0 0 1-284.456799 147.478169c-11.145667 0-22.23749-0.646126-33.275468-1.669157 0-16.583891 2.530659-48.72864 22.129802-71.181505 14.430139-16.691578 36.236878-25.36043 64.61256-26.006555 26.006556-0.538438 44.744198 0.753813 58.36668 1.669157 47.705607 3.284472 52.174643-2.69219 78.827324-58.420523 3.984441-8.453477 8.722696-18.253048 14.322451-29.614091 9.584197-19.5453 19.868362-30.852498 28.321839-29.990997 16.960797 1.023032 38.767536 37.744504 51.151611 67.735502z" fill="#F8B62D" p-id="1869"></path><path d="M849.709017 465.39076c-11.253354 16.15314-28.591058 33.060094-52.928456 38.498318a72.419912 72.419912 0 0 1-15.345483 1.669157 99.934094 99.934094 0 0 1-60.412744-22.452864 114.956514 114.956514 0 0 1-44.151917-87.765395c-0.646126-30.206372-18.737643-40.544382-39.575193-52.659237-16.691578-9.584197-33.921594-19.491456-38.39063-40.167476a33.544688 33.544688 0 0 1 5.115161-25.683493c11.576417-17.983829 40.059788-30.583279 63.535685-38.390629a339.915913 339.915913 0 0 0-31.929374-14.16092l-13.999388-5.38438 6.138193-13.514794c22.291333-48.459421 20.245269-67.520126 18.253049-73.496788-6.94585-21.968271-60.843495-71.935318-97.241904-101.818627-0.646126 4.845942 0.376907 20.4068 24.22971 58.689743 25.521961 41.190507 22.614396 80.765701-8.291945 111.402823l-4.738255 4.738255-6.730475-0.807657a357.307461 357.307461 0 0 0-41.459726-2.530659 353.269176 353.269176 0 0 0-81.73489 9.691884l-8.722695 2.153752-5.38438-7.107381c-63.535685-81.196451-102.303221-92.772868-115.925703-94.011276a19.168393 19.168393 0 0 0-13.568638 2.746034c-1.615314 7.161225 18.683799 34.352345 28.375683 47.490232 2.530659 3.284472 5.061317 6.622787 7.376601 9.907259 10.230322 13.945544 15.453171 36.883003 15.453171 67.897033v7.807351l-6.676632 4.145972c-2.638346 1.56147-5.38438 3.230628-7.538132 4.899786l-8.130414 5.38438-5.38438-1.238407c-136.063284-28.591058-158.139242-20.4068-160.185307-19.383768-15.560858 7.753507-43.344259 45.444168-61.812683 77.427385a376.906604 376.906604 0 0 0 56.912898-15.560858 67.143219 67.143219 0 0 1 9.153446-21.537521c14.537826-22.560552 37.69066-32.30628 52.659237-22.829771s15.345483 34.944627 0.807657 57.397491a63.32031 63.32031 0 0 1-23.852804 22.452865 34.783095 34.783095 0 0 1-15.614702 3.984441 23.422053 23.422053 0 0 1-13.137887-3.715222 24.606617 24.606617 0 0 1-10.445698-15.776233 330.708623 330.708623 0 0 1-67.466282 16.15314 88.519208 88.519208 0 0 0-6.892006 18.629955c2.584502 0.915345 6.030506 1.938377 8.93807 2.799877 22.66824 6.784319 64.774092 19.060705 57.397492 83.72711a12.653293 12.653293 0 0 0 1.076876 9.099603c1.776845 1.776845 7.861195 3.176784 19.222237 1.669157l14.968576-2.046064c22.775928-3.82291 67.197063-14.914733 93.095932-44.044229l20.891394 18.522268c-34.406189 38.875224-91.534461 50.774704-115.441108 54.166863a339.215944 339.215944 0 0 0-4.469036 107.687601 90.67296 90.67296 0 0 0 90.457585 6.94585c24.768148-10.76876 45.659543-11.091823 62.028059-0.376906 27.891089 18.091517 29.291028 58.905118 29.291027 66.927844a138.809318 138.809318 0 0 1-1.399939 14.430139c-2.369127 16.583891-6.084349 44.367292 5.868975 57.289803 5.922818 6.5151 16.15314 9.422665 31.014029 8.561165 25.037367-1.453783 33.975438 8.022726 37.152222 16.15314 2.799878 6.892006 4.307504 21.214457-16.745422 39.036755a149.416547 149.416547 0 0 1-91.857524 31.498624h-6.568943a348.154015 348.154015 0 0 0 145.64748 62.728027c0.376907-21.53752 4.95363-57.989773 28.806434-85.611643 19.814519-22.937459 48.459421-34.944627 85.234736-35.698439a601.219878 601.219878 0 0 1 60.843495 1.776845c17.499235 1.184564 24.768148 1.56147 28.48337-1.399939 5.38438-4.307504 12.222543-18.199205 23.206678-41.190507 4.092129-8.561164 8.884227-18.522267 14.537826-29.990997 15.507015-31.390936 34.13697-46.682575 55.082208-45.498012 30.206372 1.669158 53.843801 38.875224 67.520126 67.358595a346.323326 346.323326 0 0 0 35.429221-257.588742z m-468.441065-100.418688a38.336786 38.336786 0 0 1-12.384074-2.099908c-22.506709-7.430444-33.867751-33.329313-25.737337-57.720554s32.898562-38.229098 55.24374-30.744811a43.559635 43.559635 0 0 1 28.321839 45.282637 48.082514 48.082514 0 0 1-2.530659 12.545605 46.413356 46.413356 0 0 1-42.859665 32.737031z m174.884664 360.753464a47.221013 47.221013 0 0 1-35.590752 18.468424 59.228181 59.228181 0 0 1-22.075958 4.361348 52.013111 52.013111 0 0 1-24.498929-6.030506c-39.790569-20.514488-54.328395-86.473144-55.889865-93.957432a14.037079 14.037079 0 0 1 27.460338-5.815131c3.446003 16.691578 17.606923 62.62034 41.352039 74.789039a27.568026 27.568026 0 0 0 25.36043 0l3.12294-1.399938 3.446004 0.269219a19.5453 19.5453 0 0 0 15.183951-7.699664c5.81513-7.915039 12.491762-29.667934-7.968882-85.71933a13.837857 13.837857 0 0 1 8.291945-17.876142 13.945544 13.945544 0 0 1 17.876142 8.291945c19.276081 52.174643 20.568332 90.026835 4.145973 112.102793z" fill="#FFFFFF" p-id="1870"></path><path d="M860.316246 555.040688a345.407981 345.407981 0 0 1-46.036449 172.784756c-13.784013-28.483371-37.313754-65.689437-67.520126-67.358594-20.945238-1.184564-39.575193 14.107076-55.082208 45.498011-5.38438 11.46873-10.445697 21.53752-14.537827 29.990997-10.76876 22.991303-17.606923 36.883003-23.206678 41.190508-3.715222 2.961409-10.76876 2.584502-28.48337 1.399938a601.219878 601.219878 0 0 0-60.843495-1.776845c-36.721472 0.753813-65.420218 12.760981-85.234736 35.69844-23.852804 27.675714-28.429527 64.074123-28.806434 85.611643a348.154015 348.154015 0 0 1-145.378261-62.728028h6.568944a151.462611 151.462611 0 0 0 34.729251-4.092129 345.731044 345.731044 0 0 0 104.241598 36.506097c0.376907-21.53752 4.95363-57.935929 28.806433-85.611643 19.814519-22.937459 48.459421-34.944627 85.234737-35.69844 27.298807-0.538438 46.790263 0.753813 60.843494 1.776846 17.499235 1.184564 24.768148 1.56147 28.483371-1.399939 5.38438-4.307504 12.222543-18.199205 23.206678-41.190508 4.092129-8.561164 8.884227-18.522267 14.537826-29.990997 15.507015-31.390936 34.13697-46.682575 55.082208-45.498011 30.206372 1.723002 53.843801 38.875224 67.520126 67.358595a344.600324 344.600324 0 0 0 45.498011-157.062367c0.323063 4.684411 0.376907 9.63804 0.376907 14.59167z" fill="#C9CACA" p-id="1871"></path><path d="M368.883878 362.764476a38.336786 38.336786 0 0 0 12.437918 2.046065 46.4672 46.4672 0 0 0 43.07504-32.790875 49.913203 49.913203 0 0 0 2.26144-12.33023 43.559635 43.559635 0 0 0-28.267995-45.228793c-22.345177-7.484288-47.167169 6.353568-55.297584 30.74481a48.782483 48.782483 0 0 0 1.076876 34.406189 40.759757 40.759757 0 0 0 24.714305 23.152834z m0.699969-48.890171a18.791486 18.791486 0 0 1 16.153141-13.676325 11.522573 11.522573 0 0 1 3.607534 0.592282 15.776234 15.776234 0 0 1 9.261134 16.745422 20.299113 20.299113 0 0 1-1.13072 5.38438c-3.176784 9.63804-12.33023 15.614702-19.922206 13.084043a13.353263 13.353263 0 0 1-7.807351-7.699663 20.837551 20.837551 0 0 1-0.161532-14.322451zM418.150956 648.136619c1.507626 7.484288 16.15314 73.442944 55.836021 93.957432a52.551549 52.551549 0 0 0 24.552773 6.030506 61.812683 61.812683 0 0 0 22.075958-4.307504 47.651764 47.651764 0 0 0 35.536908-18.522267c16.637734-22.075958 15.291639-59.874306-3.930597-112.425856a13.999388 13.999388 0 0 0-26.275775 9.63804c20.514488 55.997553 13.891701 77.696604 8.07657 85.665487a19.437612 19.437612 0 0 1-15.345483 7.915039l-3.446003-0.269219-3.176784 1.399939a27.675714 27.675714 0 0 1-25.414274 0c-23.691272-12.222543-37.69066-58.097461-41.298195-74.789039a13.945544 13.945544 0 0 0-27.191119 5.707442z" fill="#231815" p-id="1872"></path><path d="M1058.56912 440.299549c0-3.338316-0.269219-7.322757-0.376907-12.061011l-0.646125-22.399021-19.922207 10.76876c-3.661378 1.884533-89.057646 48.459421-99.772562 111.07976a79.042699 79.042699 0 0 0 16.15314 62.135746c-10.76876 22.183646-23.960491 35.859971-39.413662 40.544382a51.690049 51.690049 0 0 1-34.298501-2.638346 376.42201 376.42201 0 0 0-221.190333-423.750711c14.753201-35.483065 19.276081-62.404965 13.622482-80.227263-12.491762-39.036755-102.303221-112.048949-113.071981-120.340894l-3.284472-3.015253-4.361348-0.323063a29.18334 29.18334 0 0 0-26.9219 13.837857c-10.76876 17.660767-3.069097 46.197981 23.960491 89.703772 17.337704 27.944933 17.445391 51.636205 0 71.989161-12.976356-1.292251-25.36043-1.938377-37.690661-1.938377a382.290984 382.290984 0 0 0-79.581137 8.507321C370.822255 105.768016 327.747214 86.761154 302.225253 84.499715a44.744198 44.744198 0 0 0-34.729252 9.799571c-23.045147 20.783707 2.315283 54.866833 25.037368 84.965518 2.422971 3.284472 4.845942 6.5151 7.053538 9.691884 5.868974 7.915039 9.314978 23.368209 9.961103 43.882697-144.08601-29.990997-165.461999-19.383768-172.300162-15.830077a110.110572 110.110572 0 0 0-28.537215 24.768148c-23.260522-0.861501-76.08129 0-98.157248 24.714305a40.436694 40.436694 0 0 0-9.045759 36.236877 43.07504 43.07504 0 0 0 22.991303 31.01403 68.381627 68.381627 0 0 0 22.506709 6.407412 90.511429 90.511429 0 0 0-4.845942 17.230016 22.506709 22.506709 0 0 0 6.568944 20.999082 62.512653 62.512653 0 0 0 22.452864 9.853416c21.53752 6.353568 42.105852 12.33023 37.367598 53.8438a36.398409 36.398409 0 0 0 9.314978 32.306281 37.69066 37.69066 0 0 0 23.368209 10.014947 373.029851 373.029851 0 0 0 52.28233 266.688344c-20.514488 29.506403-50.074735 80.227263-30.206372 103.433941a31.175561 31.175561 0 0 0 25.037368 10.122635c17.983829 0 43.882697-9.099602 79.850356-27.568026a375.668197 375.668197 0 0 0 546.622264-63.966435c34.029282 13.784013 72.312224 26.383462 99.126436 26.383462 14.107076 0 25.091211-3.446003 30.475592-12.114855 10.76876-17.391548 1.507626-43.882697-77.050479-114.148858 2.153752-6.138193 4.092129-12.276387 5.976662-18.522267a85.28858 85.28858 0 0 0 28.321839 5.115161 73.819851 73.819851 0 0 0 20.514488-2.853721c22.452865-6.730475 40.975132-24.175866 55.136052-51.905424a37.206066 37.206066 0 0 0 4.361348 0 49.374765 49.374765 0 0 0 24.122022-6.353569c19.006862-10.76876 32.30628-33.221625 39.252131-67.358594l5.007473-24.014335c8.991915-42.590446 9.368821-44.259604 8.507321-67.035532z m-220.221145-11.253354c-5.38438 11.845636-20.999082 41.567414-47.651763 47.544076-15.72239 3.446003-35.752284-2.422971-52.443862-15.507015a86.526988 86.526988 0 0 1-33.437-66.389406c-1.13072-45.874918-31.498623-63.374153-53.843801-76.135134-14.322451-8.291945-23.206678-13.784013-24.983523-21.914427a5.38438 5.38438 0 0 1 1.238407-4.630567c8.938071-13.730169 46.790263-27.568026 73.981382-34.136969a352.461519 352.461519 0 0 1 137.14016 171.169442zM32.575499 317.266465a24.122023 24.122023 0 0 1-13.299418-18.199205 21.53752 21.53752 0 0 1 4.630566-20.137581c12.707137-14.16092 44.851886-18.145361 69.404659-18.468424a416.535641 416.535641 0 0 0-38.282942 61.866527 55.459115 55.459115 0 0 1-22.452865-5.061317z m155.716272 519.323457a10.230322 10.230322 0 0 1-3.446004 0c-3.284472-6.892006 8.453477-33.490844 25.898869-60.466589a382.290984 382.290984 0 0 0 35.483064 40.867445c-35.752284 17.230016-51.636205 19.599143-57.935929 19.599144z m69.512346-48.459421a347.400202 347.400202 0 0 1-86.150081-163.415935 118.456361 118.456361 0 0 0 96.057341-2.207596c15.453171-6.838163 27.460338-7.753507 35.483064-2.530658 12.114855 7.915039 16.476203 30.367904 16.476203 43.505791a95.895809 95.895809 0 0 1-1.184563 10.76876c-2.907565 21.53752-7.861195 57.505179 13.030199 80.119575 11.89948 12.868668 29.829466 18.737643 53.089988 17.445391a44.044229 44.044229 0 0 1 6.784319 0 82.919453 82.919453 0 0 1-31.660155 21.052926c-16.691578 7.107382-59.282024 20.137581-101.926315-4.469035z m253.981208 110.325947c-11.199511 0-22.291333-0.646126-33.275469-1.669157 0-16.583891 2.530659-48.459421 22.075958-71.181505 14.430139-16.691578 36.12919-25.36043 64.612561-26.006556 26.114243-0.538438 44.744198 0.753813 58.420524 1.669158 47.705607 3.284472 52.174643-2.69219 78.827324-58.420523 3.984441-8.453477 8.668852-18.253048 14.322451-29.614091 9.422665-19.114549 19.491456-29.990997 27.783401-29.990997h0.538438c16.960797 1.023032 38.767536 37.69066 51.15161 67.735502a348.046327 348.046327 0 0 1-284.456798 147.747388z m302.494472-175.476946c-13.784013-28.483371-37.69066-65.635593-67.627814-67.358594-20.945238-1.292251-39.52135 14.107076-55.082208 45.498011-5.38438 11.46873-10.33801 21.53752-14.430139 29.990997-10.76876 22.991303-17.606923 36.883003-23.206678 41.190508-3.715222 2.961409-10.76876 2.584502-28.48337 1.399938a602.404441 602.404441 0 0 0-60.843495-1.776845c-36.721472 0.753813-65.420218 12.760981-85.28858 35.69844-23.852804 27.675714-28.375683 64.074123-28.75259 85.611643a347.884796 347.884796 0 0 1-145.378261-62.728028h6.5151a149.093484 149.093484 0 0 0 91.857524-31.498623c21.052926-17.822298 19.599143-32.30628 16.799265-39.036756-3.284472-8.130414-12.222543-17.606923-37.206066-16.15314-14.59167 0.861501-25.037367-2.046064-31.014029-8.561164-11.89948-12.922512-8.184258-40.705913-5.868974-57.289804a125.348368 125.348368 0 0 0 1.399939-14.430139c0-8.022726-1.399939-48.836327-29.237184-66.927844-16.15314-10.76876-37.25991-10.76876-62.081902 0.376907a90.67296 90.67296 0 0 1-90.457585-6.94585 363.714873 363.714873 0 0 1-2.422971-40.059788 348.80014 348.80014 0 0 1 6.892006-67.735501c23.691272-3.392159 81.088764-15.291639 115.441109-54.166864l-20.945239-18.522267c-26.168087 29.452559-70.643066 40.436694-93.257462 44.259604l-15.076265 2.046064c-11.307198 1.507626-17.337704 0-19.114549-1.669157a12.599449 12.599449 0 0 1-1.023032-9.099603c7.484288-64.612561-34.675408-77.050479-57.289804-83.673266-2.799878-0.861501-6.245881-1.884533-8.830383-2.799877a80.173419 80.173419 0 0 1 6.892006-18.629955 324.085836 324.085836 0 0 0 67.412439-16.153141 24.983523 24.983523 0 0 0 10.445697 15.776234 23.422053 23.422053 0 0 0 13.137887 3.715222 34.406189 34.406189 0 0 0 15.560859-3.984441 63.212622 63.212622 0 0 0 23.960491-22.452865c14.537826-22.452865 14.16092-47.705607-0.861501-57.397491a28.591058 28.591058 0 0 0-28.698746 0 68.812377 68.812377 0 0 0-33.060093 44.044229 378.091168 378.091168 0 0 1-57.128273 15.830077c18.468424-31.983218 46.197981-69.673878 61.328089-77.427385 2.046064-1.023032 24.122023-9.20729 160.131463 19.383768l5.707443 1.238407 8.07657-5.38438c2.530659-1.723002 4.95363-3.284472 7.538132-4.845942l6.622788-4.145973v-7.807351c0-31.014029-5.115161-53.843801-15.345483-67.897032l-7.376601-9.907259c-9.691884-13.137887-29.990997-40.329007-28.429527-47.490233a18.899174 18.899174 0 0 1 13.514794-2.69219c13.730169 1.184564 52.443862 12.760981 116.03339 93.957432l5.384381 7.107382 8.668851-2.153752a354.561427 354.561427 0 0 1 81.842577-9.691884 359.461213 359.461213 0 0 1 41.459727 2.530659l6.676631 0.8615 4.738255-4.792098c30.852498-30.74481 33.867751-69.996941 8.238101-111.402823-23.79896-38.282942-24.821992-53.843801-24.122023-58.689743 36.398409 29.883309 90.24221 79.850356 97.241904 101.818627 1.938377 5.976662 3.930597 25.037367-18.253048 73.496788l-6.245881 13.514794 13.999388 5.38438a341.908134 341.908134 0 0 1 32.306281 14.160919c-23.583585 7.753507-52.066955 20.352957-63.75106 38.121411a33.275469 33.275469 0 0 0-5.061318 25.683493c4.522879 20.676019 21.53752 30.583279 38.336786 40.167475 20.945238 12.114855 38.929068 22.452865 39.682881 52.659237a114.794983 114.794983 0 0 0 44.151917 87.765395 99.772563 99.772563 0 0 0 60.305057 22.452865 73.066037 73.066037 0 0 0 15.45317-1.669158c24.283554-5.38438 41.621258-22.452865 52.928456-38.498317a346.323326 346.323326 0 0 1-35.42922 257.588742zM189.314803 295.728944a9.368821 9.368821 0 0 0-12.33023-4.68441l-8.668852 3.769066c0.484594-0.753813 0.861501-1.615314 1.399939-2.422971a45.551855 45.551855 0 0 1 16.58389-16.15314 16.476203 16.476203 0 0 1 7.268913-2.046065 5.38438 5.38438 0 0 1 3.015253 0.753813c4.522879 2.853721 5.007473 16.637734-4.684411 31.552468a45.928762 45.928762 0 0 1-16.58389 16.15314 11.091823 11.091823 0 0 1-10.230322 1.184563 8.50732 8.50732 0 0 1-3.015253-6.5151c11.576417-4.469035 19.760675-8.07657 22.560552-9.422665a9.20729 9.20729 0 0 0 4.684411-12.168699z m730.17578 476.248417c-12.599449 1.938377-50.236266-7.64582-88.411521-22.560553a381.537171 381.537171 0 0 0 25.521962-48.45942c49.751672 45.498012 60.520432 64.504873 62.889559 71.019973z m103.326253-270.02666l-5.061317 24.122022c-6.407412 31.498623-17.122329 43.613478-24.983523 48.459421a21.53752 21.53752 0 0 1-13.0302 2.961409c-12.276387-14.699358-17.014641-29.506403-14.430139-45.174949 5.707443-33.275469 42.21354-62.997247 65.581749-78.827324-0.107688 9.853416-1.669158 17.553079-8.07657 48.405577z" fill="#231815" p-id="1873"></path><path d="M1030.893406 453.275905c0 10.068791-1.669158 17.768454-8.07657 48.459421l-5.061317 24.122022c-6.407412 31.498623-17.122329 43.613478-24.983523 48.459421a21.53752 21.53752 0 0 1-13.0302 2.961409c-12.276387-14.699358-17.014641-29.506403-14.430139-45.174949 5.653599-33.275469 42.21354-62.997247 65.581749-78.827324z" fill="#EB6100" p-id="1874"></path><path d="M246.120013 816.721559c-35.644596 17.499235-51.528517 19.922206-57.828242 19.922206a10.230322 10.230322 0 0 1-3.446004-0.053843c-3.284472-6.892006 8.453477-33.490844 25.898869-60.466589a382.290984 382.290984 0 0 0 35.375377 40.598226zM919.490583 771.977361c-12.599449 1.938377-50.236266-7.64582-88.411521-22.560553a381.537171 381.537171 0 0 0 25.521962-48.45942c49.751672 45.498012 60.520432 64.504873 62.889559 71.019973z" fill="#B38C54" p-id="1875"></path></svg>