<?xml version="1.0" standalone="no"?><!DOCTYPE svg PUBLIC "-//W3C//DTD SVG 1.1//EN" "http://www.w3.org/Graphics/SVG/1.1/DTD/svg11.dtd"><svg t="1568621486720" class="icon" viewBox="0 0 1200 1024" version="1.1" xmlns="http://www.w3.org/2000/svg" p-id="2394" width="18.75" height="16" xmlns:xlink="http://www.w3.org/1999/xlink"><defs><style type="text/css"></style></defs><path d="M388.435082 985.87448a205.119757 26.58214 0 1 0 410.239514 0 205.119757 26.58214 0 1 0-410.239514 0Z" fill="#EFEFEF" p-id="2395"></path><path d="M593.554839 1023.964039a1193.089278 1193.089278 0 0 1-146.489453-7.882582c-58.400155-7.53736-70.137723-17.26113-70.137723-30.206977s11.50742-22.61208 70.137723-30.206977a1205.34468 1205.34468 0 0 1 146.489453-7.882582 1205.34468 1205.34468 0 0 1 146.489453 7.882582c58.400155 7.594897 70.137723 17.26113 70.137724 30.206977s-11.50742 22.669617-70.137724 30.206977a1193.089278 1193.089278 0 0 1-146.489453 7.882582z m-184.118716-38.089559c25.949231 7.364749 91.714135 15.07472 184.118716 15.07472s158.169484-7.709971 184.118716-15.07472c-25.949231-7.364749-91.714135-15.07472-184.118716-15.07472s-158.169484 7.709971-184.118716 15.07472zM363.003685 333.403781a39.182764 39.182764 0 0 0-55.293152 1.611039 42.577453 42.577453 0 0 0-12.715699 26.984899 36.478521 36.478521 0 0 0 10.011455 28.250716 36.133298 36.133298 0 0 0 25.891695 10.586826 42.117156 42.117156 0 0 0 29.401457-12.255402 40.275969 40.275969 0 0 0 6.846915-8.688102 38.147096 38.147096 0 0 0-4.142671-46.489976z m-21.403801 31.070034a11.795105 11.795105 0 0 1-2.243947 2.819317 9.781307 9.781307 0 0 1-13.003384 1.956262 6.386618 6.386618 0 0 1-1.611039-5.063265 13.233533 13.233533 0 0 1 4.142671-7.882582 12.945847 12.945847 0 0 1 8.457954-3.682375 5.75371 5.75371 0 0 1 4.545431 1.726113 8.573028 8.573028 0 0 1-0.287686 10.12653zM586.305165 823.274639a50.632647 50.632647 0 0 1-38.032023 19.677688 64.786773 64.786773 0 0 1-23.59021 4.718042 55.983597 55.983597 0 0 1-26.17938-6.674303c-42.462379-21.864097-58.054933-92.347043-59.665971-100.3447a14.902109 14.902109 0 0 1 29.171309-6.041396c3.682374 17.778963 18.814631 66.858109 44.188492 79.91903a29.631606 29.631606 0 0 0 27.099973-0.287685l3.509763-1.495965h3.682374a20.885967 20.885967 0 0 0 16.225462-8.285342c6.15647-8.457954 13.233533-31.760478-8.688102-91.541524a14.959646 14.959646 0 0 1 28.020567-10.011455c20.598281 56.32882 21.979172 96.7774 4.257746 120.36761z" fill="#231815" p-id="2396"></path><path d="M1197.694375 507.280893c-1.78365-2.876855-8.688102-11.50742-24.108044-5.35095l-10.529289 4.37282c-4.487894 1.78365-9.781307 3.97006-14.844572 6.098932 1.898724-2.704244 3.797449-5.408487 5.75371-8.170268a237.915903 237.915903 0 0 0 29.401457-49.481905 22.094246 22.094246 0 0 0-35.730538-23.99297 159.780523 159.780523 0 0 1-51.092944 32.163238 56.156208 56.156208 0 0 1 9.090862-42.750064 22.266857 22.266857 0 0 0-0.805519-25.201249 22.036709 22.036709 0 0 0-24.108045-8.055194c-43.095287 12.428013-80.551938 56.443894-91.599061 107.076541a114.613901 114.613901 0 0 0-0.690445 46.720124c-10.241604 5.75371-32.335849 15.535017-54.717781 11.967716a394.129126 394.129126 0 0 0-37.859411-195.626135c5.293413 2.531632 11.162197 5.75371 17.721427 9.263473a29.631606 29.631606 0 0 0 36.363446-46.029679A262.887004 262.887004 0 0 0 865.014871 259.180924a191.195779 191.195779 0 0 1 38.204633 7.594897 21.864097 21.864097 0 0 0 24.79849-8.975787 22.036709 22.036709 0 0 0-1.726113-26.524603c-55.753449-65.304607-120.827907-60.816713-158.572244-50.344961 12.658162-21.921635 36.938817-30.782348 72.554281-26.467065a17.26113 17.26113 0 0 0 18.757094-12.888311 17.26113 17.26113 0 0 0-10.414215-19.792761c-133.773754-51.092944-229.170264-0.978131-252.24264 13.348606-9.205936-1.38089-17.26113-2.474095-25.316323-3.107003a398.617019 398.617019 0 0 0-44.591252-1.150742c3.452226-7.192137 6.846915-14.556886 10.068992-21.80656 34.522259-5.408487 146.604527-26.524602 172.035925-74.798228a14.902109 14.902109 0 0 0-26.409528-13.808904c-13.521218 25.661546-79.746419 46.029679-131.817493 55.810986 9.378547-23.014839 16.85837-43.382972 21.231189-55.810986a14.959646 14.959646 0 1 0-28.193178-9.953918c-9.666233 27.099973-20.02291 53.394428-30.379588 77.32986a14.729497 14.729497 0 0 0-1.495965 3.5673c-6.616766 15.017183-13.175996 28.768549-19.447539 41.484249a399.307465 399.307465 0 0 0-78.250454 17.261129c0.978131-8.688102 2.071336-17.26113 3.279615-25.431397h5.753709c61.507158 0 87.226242-53.682113 92.059358-84.637073a14.907862 14.907862 0 1 0-29.458994-4.602967c-0.517834 2.589169-10.471752 59.263212-63.290809 59.435822 5.75371-30.264514 11.50742-51.265555 11.50742-51.783388a14.959646 14.959646 0 1 0-28.768549-8.055194 761.791186 761.791186 0 0 0-22.61208 126.581617 397.581352 397.581352 0 0 0-174.797706 143.209838c-16.685759 22.497006-44.994011 47.065347-71.173391 67.663628s-50.402498 36.938817-59.49336 43.03775c-13.923978 3.509763-51.783389 13.636292-55.810985 42.63499a46.029679 46.029679 0 0 0 12.312939 35.327779l-1.093205 0.805519C18.471538 503.253297-0.228019 515.508699 0.002129 537.718019c0.287685 25.604009 26.064306 52.646445 86.305648 90.505856a233.888306 233.888306 0 0 0 38.607394 19.505076L47.58531 661.365244l1.208279 13.578755a71.863836 71.863836 0 0 0 54.315021 60.931787 128.883101 128.883101 0 0 0 34.522259 4.257746 256.61546 256.61546 0 0 0 58.342618-7.652434 406.902362 406.902362 0 0 0 56.386357 72.841966c-15.535017 34.867482-37.111429 95.914343-11.047123 116.22494a30.206977 30.206977 0 0 0 19.217391 6.386618c20.195522 0 48.906534-15.707628 89.930485-48.561312a392.978384 392.978384 0 0 0 126.92684 42.404842 412.310849 412.310849 0 0 0 60.413954 4.487894 397.005981 397.005981 0 0 0 318.007544-160.068209c37.514188 15.650091 81.012235 30.379588 111.104137 30.379588 15.132257 0 26.754751-3.682374 32.565998-12.945847 11.852642-18.929705 1.265816-47.813329-86.305648-125.661023 2.18641-6.15647 4.200208-12.428013 5.75371-18.699557a206.04035 206.04035 0 0 0 109.320487-43.613121 69.044518 69.044518 0 0 0 30.379588 6.559229c42.002082 0 90.333245-30.379588 118.181201-54.257484 18.411872-16.110388 28.36579-28.480864 20.885967-40.678729z m-1112.479802-63.290808c40.275969-10.011455 47.065347 6.214007 49.36683 11.50742a31.012496 31.012496 0 0 1-6.444155 34.522259 35.327779 35.327779 0 0 1-38.147096 9.148399 65.24707 65.24707 0 0 1-8.055194-3.452226c-15.822702-9.493621-32.565998-25.604009-31.472793-33.371518 0.575371-3.5673 8.457954-11.50742 34.752408-18.354334z m16.915907 158.744855C35.444982 560.905469 29.691272 542.205912 29.691272 537.430333c0-5.75371 9.953918-12.370476 18.699557-18.124186 2.589169-1.668576 5.005728-3.279615 7.249675-5.005727a113.117936 113.117936 0 0 0 11.50742 7.479822l0.747982 0.517834a119.274405 119.274405 0 0 0 11.50742 5.063265 63.578494 63.578494 0 0 0 22.266857 3.97006 65.764904 65.764904 0 0 0 47.698255-20.598282 60.644102 60.644102 0 0 0 12.658161-66.743034 51.783389 51.783389 0 0 0-31.760478-29.401457 662.769839 662.769839 0 0 0 78.307991-65.937515c7.94012 58.342618 28.768549 175.833373 71.00078 219.734179a27.847956 27.847956 0 0 1 7.652434 13.69383c-28.308253 7.077063-49.999739 5.75371-64.211402-4.315283-24.510804-17.26113-19.620151-55.350689-19.620151-55.753448a5.005728 5.005728 0 1 0-9.896381-1.265816v2.991929a4.890653 4.890653 0 0 0-5.35095 2.646706c-0.805519 1.726113-20.137985 42.807601 4.890653 74.222857 10.126529 12.600625 25.949231 21.461338 47.180421 26.754751-36.248372 10.241604-87.513927 7.364749-138.089036-24.395729z m138.089036-242.173648c15.535017-16.513147 70.425409-70.19526 122.611558-63.290809 28.768549 3.739911 53.221816 26.58214 72.726892 67.606091 9.666233 20.080447 3.509763 28.768549 1.495965 31.357719-21.461338 29.631606-121.345741 29.74668-186.074977 22.61208-4.200208-20.080447-7.767508-40.103358-10.586826-58.054933z m46.029679 231.471748a31.645404 31.645404 0 0 1-5.75371 10.759437 69.044518 69.044518 0 0 1-23.014839 17.26113c-31.185107-4.487894-47.98594-15.017183-56.961728-26.17938-14.729497-18.296797-10.816975-41.599322-7.077063-54.372558 1.438427 14.441812 6.674303 33.774277 23.705285 46.029679s39.585524 13.808904 69.447278 6.73184z m-175.315539 115.074197a44.188492 44.188492 0 0 1-28.135642-21.461338l82.853422-14.556886q6.904452 17.721426 15.247332 34.52226c-20.540744 3.97006-48.906534 7.364749-69.61989 1.553501z m149.596456 191.253316h-0.690445c-4.94819-6.674303 2.416558-38.204634 15.535017-70.943243a398.501945 398.501945 0 0 0 47.755791 35.845613c-43.670658 33.371517-59.033063 35.270241-62.427752 35.270241z m504.082521-81.012235a365.590725 365.590725 0 0 1-283.024988 74.798228 371.171823 371.171823 0 0 1-287.685493-230.148394h5.178339c39.297838 0 72.669356-12.370476 93.440248-29.689143q58.054933 0 145.281174-20.195522c43.498047-10.068992 78.077843-16.570684 105.407965-20.42567a137.341054 137.341054 0 0 1 10.989586 35.557927 4.94819 4.94819 0 0 0 4.94819 4.37282h0.632908a5.005728 5.005728 0 0 0 4.257746-5.75371 142.116634 142.116634 0 0 0-10.356678-35.730538c74.107783-9.493621 90.62093 1.553502 94.015619 8.342879 5.75371 11.50742-14.154126 32.681072-21.749023 39.010153a5.005728 5.005728 0 0 0 3.279614 8.803176 5.293413 5.293413 0 0 0 3.337152-1.208279c3.452226-2.991929 34.522259-30.494662 24.050507-51.092944-8.745639-17.26113-44.303566-21.691486-107.4793-13.348607a104.832594 104.832594 0 0 0-42.865139-44.591251c-37.341577-19.735225-87.341316-13.751367-148.445714 17.721426a440.04373 440.04373 0 0 1-42.117156 18.987243 57.537099 57.537099 0 0 0-14.67196-25.201249c-17.778963-18.584483-31.93309-56.731579-42.692528-97.813068 16.110388 1.495965 38.952616 3.107003 63.693569 3.107003 53.682113 0 116.512625-7.364749 139.41239-38.952616 8.457954-11.50742 15.535017-31.818016 1.265816-61.737306-24.165581-50.747721-56.501431-79.113511-95.971881-84.29185-52.646445-6.904452-103.566778 30.379588-131.299659 55.868523 0-2.013798-0.40276-4.027597-0.575371-5.75371a368.237431 368.237431 0 0 1 145.799008-122.95678c0 10.874512 0 21.691486 0.920594 32.163238a14.902109 14.902109 0 0 0 14.844571 13.866441h1.495965a14.959646 14.959646 0 0 0 13.751366-16.05285 358.34105 358.34105 0 0 1 0-42.404842 365.245502 365.245502 0 0 1 62.830512-16.85837c-10.644363 17.26113-19.792762 28.768549-25.77662 30.091903a14.959646 14.959646 0 0 0 3.452226 29.458994 15.304868 15.304868 0 0 0 3.509763-0.40276c17.836501-4.257745 37.514188-30.667274 55.638374-63.578494a365.590725 365.590725 0 0 1 57.537099 0.287686c8.630565 0.690445 18.009112 1.898724 28.768549 3.682374l9.666233 1.495965 3.682374-5.75371c11.967717-7.709971 74.798228-43.613121 167.260346-28.308253-26.409528 12.255402-43.325435 36.420983-48.273626 71.00078l-4.487894 30.379588 26.697214-15.247331c3.049466-1.78365 70.080186-38.952616 132.623012 12.658162-28.193178-5.005728-60.241342-4.372819-85.672739 12.715698l-32.911221 22.209321 39.527987 5.005727a224.854982 224.854982 0 0 1 122.611557 68.986981c-25.488935-14.441812-45.569382-22.20932-61.334547-23.820358h-28.135641l13.578755 22.381931a368.237431 368.237431 0 0 1-87.744075 478.420975z m-461.274919-194.993227s0.40276-0.40276 0.517833-0.632908a55.983597 55.983597 0 0 0 13.636293-39.125227 424.39364 424.39364 0 0 0 44.763863-20.080448c58.170007-29.861754 104.947668-35.845612 139.239778-17.8365a93.440248 93.440248 0 0 1 37.28404 37.916948c-28.768549 4.315282-63.290809 10.874512-102.818795 20.137984a695.2783 695.2783 0 0 1-132.623012 19.620151z m669.444142 144.418117c-14.039052 2.128873-57.134339-9.033324-99.769329-26.064305a408.053104 408.053104 0 0 0 28.36579-53.336891c56.789116 51.380629 68.81437 72.496744 71.403539 79.516271z m-46.029679-158.687318c1.78365-8.457954 3.279615-17.26113 4.487894-25.661546a93.843008 93.843008 0 0 0 12.543088 0.863057 124.625356 124.625356 0 0 0 55.753448-14.614423 60.126268 60.126268 0 0 0 5.178339 7.077063 175.142928 175.142928 0 0 1-78.13538 32.450923z m202.990884-121.173129c-3.854986 5.75371-7.652434 10.989586-11.219734 16.340536-5.408487 8.170268-16.513147 25.086175-5.75371 37.916948a18.987243 18.987243 0 0 0 12.830773 6.904451 162.427229 162.427229 0 0 1-54.717781 23.01484c-15.650091 2.646707-27.387659 0.345223-36.07576-6.904452-15.937776-13.406144-21.691486-36.823743-15.937777-64.096328a122.266335 122.266335 0 0 1 52.186149-76.35173 81.069772 81.069772 0 0 0 0 57.134339 22.036709 22.036709 0 0 0 27.15751 13.003384 169.964589 169.964589 0 0 0 39.297839-18.009111c-2.646707 3.797449-5.35095 7.479823-7.94012 11.162197z" fill="#231815" p-id="2397"></path><path d="M1004.542335 575.865115a175.142928 175.142928 0 0 1-77.962769 32.335849c1.78365-8.457954 3.279615-17.26113 4.487894-25.661545a93.843008 93.843008 0 0 0 12.543087 0.863056 124.625356 124.625356 0 0 0 55.753449-14.614423 60.126268 60.126268 0 0 0 5.178339 7.077063zM1118.350716 503.368371c-5.408487 8.170268-16.513147 25.086175-5.75371 37.916948a18.987243 18.987243 0 0 0 12.830773 6.904452 162.427229 162.427229 0 0 1-54.717781 23.014839c-15.650091 2.646707-27.387659 0.345223-36.075761-6.904452-15.937776-13.406144-21.691486-36.823743-15.937776-64.096328a122.266335 122.266335 0 0 1 52.186148-76.35173 81.069772 81.069772 0 0 0 0 57.134339 22.036709 22.036709 0 0 0 27.157511 13.003385 169.964589 169.964589 0 0 0 39.297838-18.009112c-2.474095 3.682374-5.178339 7.364749-7.767508 11.047123-3.854986 5.523561-7.652434 10.989586-11.219734 16.340536z" fill="#DA3037" p-id="2398"></path><path d="M972.781856 766.888283c-14.039052 2.128873-57.134339-9.033324-99.769329-26.064306a408.053104 408.053104 0 0 0 28.36579-53.336891c56.789116 51.265555 68.81437 72.38167 71.403539 79.401197zM323.130475 863.262923c-43.382972 33.371517-58.745378 35.155167-62.140066 35.155167h-1.150742c-4.94819-6.674303 2.416558-38.204634 15.535017-70.943243a398.501945 398.501945 0 0 0 47.755791 35.788076z" fill="#6F151F" p-id="2399"></path><path d="M180.898768 705.26605c-20.540744 4.315282-48.906534 7.709971-69.61989 1.898724a44.188492 44.188492 0 0 1-28.480864-21.518875l82.853422-14.556886q6.904452 17.548815 15.247332 34.177037z" fill="#DA3037" p-id="2400"></path><path d="M286.594418 592.263188a31.645404 31.645404 0 0 1-5.75371 10.759438 69.044518 69.044518 0 0 1-23.014839 17.261129c-31.185107-4.487894-47.98594-15.017183-56.961728-26.17938-14.729497-18.296797-10.816975-41.599322-7.077063-54.372558 1.438427 14.441812 6.674303 33.774277 23.705284 46.029679s39.240301 13.578755 69.102056 6.501692z" fill="#E9772B" p-id="2401"></path><path d="M128.137248 490.019764a35.327779 35.327779 0 0 1-38.147096 9.148399 65.24707 65.24707 0 0 1-8.055194-3.452226c-15.822702-9.493621-32.565998-25.604009-31.472793-33.371518 0.575371-3.682374 8.457954-11.50742 34.522259-18.23926 40.275969-10.011455 47.065347 6.214007 49.366831 11.50742a31.012496 31.012496 0 0 1-6.214007 34.407185z" fill="#EA5514" p-id="2402"></path><path d="M203.395773 521.780242a5.005728 5.005728 0 1 0-9.896381-1.265816v2.991929a4.890653 4.890653 0 0 0-5.35095 2.646707c-0.805519 1.726113-20.137985 42.807601 4.890653 74.222857 10.126529 12.600625 25.949231 21.461338 47.180421 26.754751-35.960687 10.471752-87.226242 7.594897-137.801351-24.165581C35.444982 560.905469 29.691272 542.205912 29.691272 537.430333c0-5.75371 9.953918-12.370476 18.699557-18.124186 2.589169-1.668576 5.005728-3.279615 7.249675-5.005727a113.117936 113.117936 0 0 0 11.50742 7.479822l0.747982 0.517834a119.274405 119.274405 0 0 0 11.50742 5.063265 63.578494 63.578494 0 0 0 22.266857 3.97006 65.764904 65.764904 0 0 0 47.698255-20.598282 60.644102 60.644102 0 0 0 12.658161-66.743034 51.783389 51.783389 0 0 0-31.760478-29.401457 662.769839 662.769839 0 0 0 78.307991-65.937515c7.94012 58.342618 28.768549 175.833373 71.00078 219.734179a27.847956 27.847956 0 0 1 7.652434 13.69383c-28.308253 7.077063-49.999739 5.75371-64.211402-4.315283-24.510804-17.548815-19.620151-55.580837-19.620151-55.983597z" fill="#E9772B" p-id="2403"></path><path d="M435.730578 365.106723c-19.505076-41.023951-44.073418-63.866179-72.726893-67.606091-52.186148-6.904452-107.076541 46.777661-122.611557 63.290808 2.819318 17.951575 6.386618 37.974485 10.759437 58.285081 64.729236 7.1346 164.613639 7.019526 186.074977-22.61208 2.013798-2.819318 8.170268-11.277271-1.495964-31.357718z m-68.584222 14.787034a40.275969 40.275969 0 0 1-6.846915 8.688102 42.117156 42.117156 0 0 1-29.401457 12.255402 36.133298 36.133298 0 0 1-25.891695-10.586826 36.478521 36.478521 0 0 1-10.011455-28.250716 42.577453 42.577453 0 0 1 12.715699-26.984899 39.182764 39.182764 0 0 1 55.293152-1.611039 38.147096 38.147096 0 0 1 4.142671 46.489976z" fill="#DA3037" p-id="2404"></path><path d="M341.599884 364.473815a11.795105 11.795105 0 0 1-2.243947 2.819317 9.781307 9.781307 0 0 1-13.003384 1.956262 6.386618 6.386618 0 0 1-1.611039-5.063265 13.233533 13.233533 0 0 1 4.142671-7.882582 12.945847 12.945847 0 0 1 8.457954-3.682375 5.75371 5.75371 0 0 1 4.545431 1.726113 8.573028 8.573028 0 0 1-0.287686 10.12653z" fill="#F8B62D" p-id="2405"></path><path d="M538.779521 582.71203c-28.768549 4.315282-63.290809 10.874512-102.818795 20.137984a695.2783 695.2783 0 0 1-132.335327 19.620151s0.40276-0.40276 0.517834-0.632908a55.983597 55.983597 0 0 0 13.636292-39.125227 424.39364 424.39364 0 0 0 44.763863-20.080448c58.170007-29.861754 104.947668-35.845612 139.239779-17.8365a93.440248 93.440248 0 0 1 36.996354 37.916948z" fill="#FFFFFF" p-id="2406"></path><path d="M838.893028 316.430337h28.135641c15.765165 1.611039 35.845612 9.378547 61.334547 23.820359a224.854982 224.854982 0 0 0-123.014317-68.584221l-39.527987-5.005728 32.911221-22.20932c25.431398-17.26113 57.537099-17.721426 85.67274-12.715699-62.542826-51.783389-129.573546-14.441812-132.623013-12.658162l-26.697213 15.247331 4.487893-30.379588c4.94819-34.522259 21.864097-58.745378 48.273626-71.000779-92.577192-15.304868-155.350166 20.598281-167.260346 28.308252l-3.682374 5.75371-9.666233-1.495964a331.758911 331.758911 0 0 0-28.768549-3.682375 365.590725 365.590725 0 0 0-57.537099-0.287685c-18.23926 32.681072-37.916948 59.0906-55.465763 63.348345a15.304868 15.304868 0 0 1-3.509763 0.40276 14.959646 14.959646 0 0 1-3.452226-29.458994c5.75371-1.38089 15.132257-12.543088 25.776621-30.091903a365.245502 365.245502 0 0 0-63.118198 16.85837 358.34105 358.34105 0 0 0 0 42.404842 14.959646 14.959646 0 0 1-13.233532 16.05285h-1.150742a14.902109 14.902109 0 0 1-14.844572-13.866441c-1.265816-10.471752-1.265816-21.288726-1.265816-32.163238A368.237431 368.237431 0 0 0 234.868566 317.868765c0 1.898724 0.345223 3.912523 0.575371 5.75371 27.96303-25.488935 78.653214-62.772975 131.299659-55.868523 39.47045 5.178339 71.806299 33.544129 95.971881 84.291849 14.2692 29.919291 7.192137 50.114813-1.265816 61.737307-23.014839 31.587867-85.730277 38.952616-139.41239 38.952616-24.740952 0-47.583181-1.611039-63.693569-3.107003 10.759437 41.139026 24.913564 79.286122 42.692528 97.813067a57.537099 57.537099 0 0 1 14.67196 25.086175 440.04373 440.04373 0 0 0 42.117156-18.987242c61.104399-31.472793 111.104137-37.456651 148.445714-17.721427a104.832594 104.832594 0 0 1 43.210362 45.166623c63.290809-8.342879 98.733661-3.97006 107.4793 13.348607 10.356678 20.598281-20.598281 48.101014-24.050507 51.092943a5.293413 5.293413 0 0 1-3.337152 1.208279 5.005728 5.005728 0 0 1-3.279615-8.803176c7.594897-6.329081 27.617807-27.330122 21.749024-39.010153-3.394689-6.789378-19.907836-17.836501-94.01562-8.342879a142.116634 142.116634 0 0 1 10.356678 35.730538 5.005728 5.005728 0 0 1-4.257745 5.75371h-0.632908a4.94819 4.94819 0 0 1-4.948191-4.372819 137.341054 137.341054 0 0 0-10.989586-35.557927c-27.330122 3.854986-61.909918 10.356678-105.407964 20.42567q-87.05363 20.080447-145.281174 20.195521c-20.770893 17.26113-54.14241 29.689143-93.440249 29.689143h-5.178338a371.171823 371.171823 0 0 0 287.685493 230.148395 368.237431 368.237431 0 0 0 370.538915-553.506889z m-252.587863 506.844302a50.632647 50.632647 0 0 1-38.032023 19.677688 64.786773 64.786773 0 0 1-23.59021 4.718042 55.983597 55.983597 0 0 1-26.17938-6.674303c-42.462379-21.864097-58.054933-92.347043-59.665971-100.3447a14.902109 14.902109 0 0 1 29.171309-6.041396c3.682374 17.778963 18.814631 66.858109 44.188492 79.91903a29.631606 29.631606 0 0 0 27.099973-0.287685l3.509763-1.495965h3.682374a20.885967 20.885967 0 0 0 16.225462-8.285342c6.15647-8.457954 13.233533-31.760478-8.688102-91.541524a14.959646 14.959646 0 0 1 28.020567-10.011455c20.598281 56.32882 21.979172 96.7774 4.257746 120.36761z m90.678467-529.341307c-18.584483-0.920594-59.953657 2.991929-62.197603 20.195521-1.208279 9.436084-8.170268 26.064306-40.27597 31.645405a115.074197 115.074197 0 0 1-21.116115 1.78365c-28.135641 0-60.989325-8.342879-71.748762-28.76855-4.085134-7.882583-8.170268-23.705285 9.72377-42.519916 5.75371-7.652434 32.968758-44.01588 79.976567-50.977869 37.341577-5.466024 76.35173 8.860713 115.994791 42.63499l33.256443 28.36579z" fill="#FFFFFF" p-id="2407"></path><path d="M851.723801 338.98488a367.546986 367.546986 0 0 1-548.386087 473.702933 367.834672 367.834672 0 0 0 516.625608-497.178069l-13.521218-22.61208h28.193178c15.707628 1.553502 35.845612 9.32101 61.334548 23.762822a220.597236 220.597236 0 0 0-15.88024-15.419943 227.789374 227.789374 0 0 1 47.525644 39.182764c-25.488935-14.441812-45.626919-22.20932-61.334547-23.820358h-28.193179z" fill="#C9CACA" p-id="2408"></path><path d="M687.455384 267.638878c-39.643061-33.774277-78.653214-48.101014-115.994791-42.63499-46.950272 6.961989-74.453006 43.325435-79.976567 50.977869-17.894038 18.814631-13.808904 34.522259-9.72377 42.519916 10.759437 20.598281 43.613121 28.768549 71.748762 28.768549a115.074197 115.074197 0 0 0 21.116116-1.78365c31.990627-5.75371 38.952616-22.20932 40.275969-31.645404 2.243947-17.26113 43.613121-21.116115 62.197603-20.195522l43.728195 2.18641z m-102.243424 42.289767c-1.323353 2.589169-13.866441 8.688102-36.823743 7.594897-23.935433-1.093205-38.66493-8.975787-40.275969-12.945847 0-0.40276 0.40276-3.337152 5.75371-8.573028l1.898724-2.416558c0-0.40276 21.80656-33.31398 60.126268-39.010153a81.29992 81.29992 0 0 1 11.50742-0.805519 101.898202 101.898202 0 0 1 48.273625 13.636292c-23.072377 4.890653-47.00781 16.340536-50.460035 42.519916z" fill="#231815" p-id="2409"></path><path d="M635.38431 267.408729c-23.014839 4.890653-46.720124 16.340536-50.17235 42.519916-1.323353 2.589169-13.866441 8.688102-36.823743 7.594897-23.935433-1.093205-38.66493-8.975787-40.275969-12.945847 0-0.40276 0.40276-3.337152 5.75371-8.573028l1.898724-2.416558c0-0.40276 21.80656-33.31398 60.126268-39.010153a81.29992 81.29992 0 0 1 11.50742-0.805519 101.898202 101.898202 0 0 1 47.98594 13.636292z" fill="#DA3037" p-id="2410"></path><path d="M360.299441 388.581859a44.706326 44.706326 0 0 0 6.846915-8.630565 38.204634 38.204634 0 0 0-4.142671-46.547513 39.182764 39.182764 0 0 0-55.235615 1.611039 42.404842 42.404842 0 0 0-12.773236 26.984899 35.557927 35.557927 0 0 0 35.960687 38.837542 41.944545 41.944545 0 0 0 29.34392-12.255402z m-35.50039-24.39573a13.175996 13.175996 0 0 1 12.312939-11.50742 6.098932 6.098932 0 0 1 4.545431 1.668576 8.688102 8.688102 0 0 1 0 10.241604 13.981515 13.981515 0 0 1-2.186409 2.761781 9.896381 9.896381 0 0 1-13.003385 2.013798 6.501692 6.501692 0 0 1-1.668576-5.178339zM562.887566 694.218927a14.959646 14.959646 0 0 0-8.860714 19.159854c21.921635 59.838583 14.787034 83.08357 8.630565 91.599061a20.195522 20.195522 0 0 1-16.225462 8.170268h-3.682374l-3.394689 1.495964a29.74668 29.74668 0 0 1-27.15751 0.287686c-25.316323-13.060921-40.275969-62.140067-44.130955-79.91903a14.959646 14.959646 0 0 0-29.286383 5.75371c1.668576 7.997657 17.26113 78.480603 59.665971 100.459774a57.191876 57.191876 0 0 0 26.064306 6.444155 64.44155 64.44155 0 0 0 23.59021-4.660505 50.805258 50.805258 0 0 0 38.032022-19.792762c17.721426-23.532673 16.340536-63.981254-4.257745-120.137462a14.902109 14.902109 0 0 0-18.987242-8.860713z" fill="#231815" p-id="2411"></path><path d="M1197.694375 507.280893c-1.78365-2.819318-8.688102-11.50742-24.050507-5.408487l-10.644364 4.430357c-4.430357 1.841187-9.666233 4.027597-14.787034 5.75371q2.761781-4.027597 5.75371-8.112731a237.858366 237.858366 0 0 0 29.286383-49.539442 22.036709 22.036709 0 0 0-35.673001-23.99297 161.103876 161.103876 0 0 1-51.092944 32.220775 56.846653 56.846653 0 0 1 9.205936-42.865139 22.151783 22.151783 0 0 0-24.798489-33.256443c-43.210361 12.48555-80.897161 56.558968-91.656598 107.134078a114.613901 114.613901 0 0 0-0.690446 46.720124c-10.184066 5.75371-32.278312 15.592554-54.71778 11.967717a394.704497 394.704497 0 0 0-37.801874-195.626136c5.178339 2.531632 11.047123 5.75371 17.663889 9.263473a29.574069 29.574069 0 0 0 36.593595-45.454308 260.527983 260.527983 0 0 0-84.924758-61.104398 186.707885 186.707885 0 0 1 38.204634 7.537359 22.036709 22.036709 0 0 0 23.014839-35.442852c-55.695911-65.362144-120.827907-60.816713-158.572244-50.402499 12.600625-21.921635 36.938817-30.782348 72.554282-26.467065a17.26113 17.26113 0 0 0 18.699557-12.830773 17.26113 17.26113 0 0 0-10.644364-20.02291c-133.773754-51.035406-229.227801-0.920594-252.300177 13.348606-9.090862-1.438427-17.26113-2.416558-25.201249-3.107003a399.99791 399.99791 0 0 0-44.648789-1.150742c3.452226-7.249674 6.846915-14.556886 10.068992-21.80656 34.522259-5.408487 146.662064-26.467065 172.035925-74.798228a14.925123 14.925123 0 1 0-26.409528-13.923978c-13.578755 25.77662-79.746419 46.029679-131.759956 55.92606 9.378547-23.014839 16.743296-43.440509 21.173652-55.92606a14.959646 14.959646 0 0 0-28.193178-9.953918c-9.608695 27.215048-20.02291 53.509502-30.379588 77.444934a15.650091 15.650091 0 0 0-1.553502 3.624838c-6.559229 14.959646-13.118458 28.768549-19.390002 41.426711a399.307465 399.307465 0 0 0-78.250454 17.261129c0.978131-8.688102 2.071336-17.26113 3.337152-25.431397h5.75371c61.564696 0 87.226242-53.624576 92.059357-84.637073a14.959646 14.959646 0 0 0-29.574068-4.602967c-0.40276 2.589169-10.356678 59.263212-63.290809 59.378285 5.75371-30.206977 11.50742-51.208018 11.50742-51.783388a14.959646 14.959646 0 0 0-28.768549-8.055194 760.467833 760.467833 0 0 0-22.61208 126.581617 398.386871 398.386871 0 0 0-174.797706 143.209838c-33.889351 45.109085-112.542565 98.906273-130.551677 110.701378-13.981515 3.509763-51.783389 13.693829-55.92606 42.692527a46.029679 46.029679 0 0 0 12.370477 35.385316l-1.093205 0.690445c-13.693829 8.975787-32.450924 21.288726-32.220776 43.44051 0 25.604009 26.064306 52.703982 86.305648 90.505856a236.707624 236.707624 0 0 0 38.664931 19.505076l-77.329861 13.578756 1.093205 13.578755a72.093985 72.093985 0 0 0 54.372558 60.989324 129.055712 129.055712 0 0 0 34.522259 4.257746 257.593591 257.593591 0 0 0 58.342618-7.652434 404.025507 404.025507 0 0 0 56.386357 72.841966c-15.535017 34.925019-37.168966 95.856806-11.047123 116.22494a30.379588 30.379588 0 0 0 19.274928 6.386618c20.137985 0 48.79146-15.765165 89.872948-48.618849a390.331677 390.331677 0 0 0 126.581617 42.404842 413.864351 413.864351 0 0 0 60.529028 4.487894 397.005981 397.005981 0 0 0 318.237693-160.010672c37.571725 15.535017 81.069772 30.322051 111.104137 30.322051 15.07472 0 26.812288-3.739911 32.565998-13.003384 11.50742-18.872168 1.323353-47.755792-86.305648-125.661023 2.128873-6.15647 4.142671-12.370476 5.75371-18.699557a205.119757 205.119757 0 0 0 109.032802-43.613121 69.044518 69.044518 0 0 0 30.437125 6.674303c41.944545 0 90.275708-30.437125 118.123664-54.315021 18.64202-16.052851 28.711012-28.36579 21.173652-40.621192zM240.449665 360.79144c15.47748-16.45561 70.310335-70.137723 122.496483-63.290808 28.768549 3.797449 53.279353 26.524602 72.78443 67.548554 9.608695 20.195522 3.509763 28.768549 1.495964 31.357718-21.518875 29.689143-121.288204 29.804217-186.074977 22.669617-4.372819-20.310596-7.94012-40.333506-10.7019-58.285081zM85.214573 443.990085c40.275969-10.068992 47.065347 6.214007 49.309293 11.50742a31.012496 31.012496 0 0 1-6.444155 34.522259 35.212704 35.212704 0 0 1-38.089559 9.090861 81.645143 81.645143 0 0 1-8.112731-3.452225c-15.822702-9.436084-32.508461-25.604009-31.357719-33.429055 0.517834-3.452226 8.400416-11.392346 34.694871-18.23926zM29.691272 537.430333c0-5.75371 9.953918-12.370476 18.757095-18.181723 2.474095-1.611039 4.890653-3.279615 7.192137-4.890653 5.063265 3.682374 9.263473 6.214007 11.50742 7.479822l0.863056 0.460297a123.359539 123.359539 0 0 0 11.50742 5.063265A65.419681 65.419681 0 0 0 149.598586 510.733119a60.931787 60.931787 0 0 0 12.428013-66.743034 51.783389 51.783389 0 0 0-31.760478-29.34392 668.178327 668.178327 0 0 0 78.250454-65.937515c7.997657 58.285081 28.768549 175.718299 71.00078 219.676642a27.56027 27.56027 0 0 1 7.709971 13.69383c-28.250715 7.019526-49.999739 5.75371-64.211402-4.315283-24.453267-17.26113-19.677688-55.350689-19.620151-55.695911a4.965452 4.965452 0 1 0-9.838844-1.380891s0 1.38089-0.287685 3.049467a5.005728 5.005728 0 0 0-5.408487 2.646706c-0.805519 1.726113-20.137985 42.865138 4.890653 74.16532 10.126529 12.715699 25.949231 21.576412 47.180421 26.812288-35.960687 10.471752-87.226242 7.53736-137.801351-24.223118C35.444982 560.905469 29.691272 542.205912 29.691272 537.430333z m287.685494 45.339234a427.328032 427.328032 0 0 0 44.821399-20.195522c58.11247-29.804217 104.890131-35.788075 139.182242-17.721426a93.497785 93.497785 0 0 1 37.341577 37.859411c-28.768549 4.257745-63.290809 10.932049-102.933869 20.080447a690.445184 690.445184 0 0 1-132.335327 19.677688l0.575371-0.575371a55.695911 55.695911 0 0 0 13.348607-39.125227z m-36.766206 20.253059a68.354073 68.354073 0 0 1-23.01484 17.261129c-31.12757-4.487894-48.043477-15.017183-57.019265-26.17938-14.614423-18.296797-10.816975-41.656859-7.019526-54.372558 1.38089 14.441812 6.731841 33.774277 23.705285 46.029679s39.47045 13.693829 69.447278 6.674303a31.93309 31.93309 0 0 1-5.983858 10.586827z m-169.389219 104.084611a44.130955 44.130955 0 0 1-28.423327-21.461338l82.853422-14.556886q6.846915 17.606352 15.247332 34.52226c-20.483207 3.97006-48.906534 7.364749-69.677427 1.495964z m149.596457 191.36839h-0.747983c-4.94819-6.731841 2.359021-38.262171 15.47748-71.058317a404.370729 404.370729 0 0 0 47.58318 35.845613c-43.670658 33.31398-59.033063 35.270241-62.370214 35.270241z m504.082521-81.127309a365.245502 365.245502 0 0 1-283.082525 74.798228 371.286898 371.286898 0 0 1-287.685494-230.148394h5.178339c39.240301 0 72.611818-12.428013 93.440248-29.74668q58.054933 0 145.281174-20.137985c43.498047-10.068992 78.020306-16.513147 105.407965-20.42567a140.102835 140.102835 0 0 1 10.989586 35.557927 5.005728 5.005728 0 0 0 4.948191 4.37282h0.632908a4.94819 4.94819 0 0 0 4.315282-5.75371 144.993489 144.993489 0 0 0-10.356678-35.730538c74.050246-9.436084 90.563393 1.553502 93.958082 8.342879 5.75371 11.50742-14.211663 32.623535-21.691486 39.06769a5.005728 5.005728 0 0 0-0.517834 7.019526 4.890653 4.890653 0 0 0 3.797449 1.726113 5.120802 5.120802 0 0 0 3.222077-1.208279c3.5673-3.049466 34.522259-30.437125 24.108045-51.035407-8.745639-17.26113-44.246029-21.749023-107.479301-13.406144a104.659982 104.659982 0 0 0-43.152824-44.591251c-37.341577-19.677688-87.283779-13.751367-148.445714 17.721426a427.040346 427.040346 0 0 1-42.059619 18.987243 58.687841 58.687841 0 0 0-14.614423-25.201249c-17.894038-18.584483-32.048164-56.674042-42.692527-97.813068 15.995313 1.495965 38.837542 3.049466 63.636031 3.049466 53.682113 0 116.455088-7.364749 139.354853-38.895079 8.457954-11.50742 15.592554-31.818016 1.323353-61.737306-24.223119-50.805258-56.501431-79.171048-95.971881-84.349387-52.646445-6.789378-103.566778 30.379588-131.299659 55.92606 0-2.013798-0.460297-4.027597-0.632908-5.75371a368.812802 368.812802 0 0 1 145.856545-122.95678c0 10.874512 0 21.691486 0.863057 32.220775a14.902109 14.902109 0 0 0 14.844571 13.808904h1.553502a14.959646 14.959646 0 0 0 13.751366-16.05285 358.34105 358.34105 0 0 1-0.345222-42.404842 367.316838 367.316838 0 0 1 62.888049-16.85837c-10.7019 17.606352-19.792762 28.768549-25.834158 30.091903a14.959646 14.959646 0 0 0 3.279615 29.516531 14.154126 14.154126 0 0 0 3.452226-0.40276c17.894038-4.315282 37.571725-30.609736 55.695911-63.578494a364.785205 364.785205 0 0 1 57.537099 0c8.688102 0.747982 18.066649 1.956261 28.768549 3.739912l9.551159 1.495964 3.682374-5.753709c11.967717-7.594897 74.798228-43.613121 167.317883-28.250716-26.409528 12.255402-43.267898 36.478521-48.331163 71.058317l-4.37282 30.264514 26.58214-15.189794c3.107003-1.78365 70.137723-38.952616 132.680549 12.600624-28.193178-4.890653-60.241342-4.315282-85.615202 12.773236l-32.968758 22.266857 39.47045 4.948191a225.718038 225.718038 0 0 1 123.302002 69.102055c-25.546472-14.384275-45.626919-22.151783-61.334547-23.762821h-28.193178l13.578755 22.324394a368.237431 368.237431 0 0 1-87.629001 478.363438z m207.881537-50.460035c-14.039052 2.128873-57.076802-9.033324-99.654255-26.064306a404.715952 404.715952 0 0 0 28.308253-53.394428c56.674042 51.265555 68.756833 72.38167 71.288465 79.458734z m-41.599322-184.406402a84.234312 84.234312 0 0 0 12.543087 0.920594 125.373338 125.373338 0 0 0 55.695912-14.556886c1.553502 2.474095 3.337152 4.718042 5.120802 7.019526a174.222335 174.222335 0 0 1-77.905232 32.393387c1.726113-8.515491 3.279615-17.088518 4.487894-25.776621z m198.50299-95.454046c-3.912523 5.75371-7.767508 10.989586-11.507419 16.340536-5.35095 8.112731-16.570684 25.143712-5.75371 37.916948a18.987243 18.987243 0 0 0 12.830773 6.904452 162.082007 162.082007 0 0 1-54.775318 23.014839c-15.592554 2.704244-27.330122 0.460297-36.018224-6.846915-15.880239-13.463681-21.691486-36.823743-15.880239-64.096328a121.575889 121.575889 0 0 1 52.186148-76.351729 80.551938 80.551938 0 0 0 0 57.134338 22.094246 22.094246 0 0 0 27.099974 13.060922 175.085391 175.085391 0 0 0 39.412912-18.066649c-2.474095 3.624837-5.063265 7.364749-7.652434 10.989586z" fill="#231815" p-id="2412"></path><path d="M571.460593 225.34911c-47.00781 6.904452-74.798228 43.210361-79.91903 50.97787-17.951575 18.814631-13.866441 34.522259-9.781307 42.462378 10.759437 20.540744 43.555584 28.768549 71.748762 28.76855a125.258264 125.258264 0 0 0 21.058579-1.726113c32.048164-5.75371 38.952616-22.266857 40.275969-31.702942 2.301484-17.26113 43.613121-21.116115 62.197603-20.195521l43.670658 2.128872-33.256443-28.365789c-39.585524-33.889351-78.653214-48.101014-115.994791-42.347305z m13.751367 84.809684c-1.323353 2.704244-13.808904 8.688102-36.88128 7.594897s-38.607393-8.91825-40.275969-12.945848c0-0.345223 0.345223-3.222078 5.753709-8.51549l2.013799-2.474096s21.749023-33.31398 60.068731-38.952615a80.551938 80.551938 0 0 1 11.50742-0.80552 101.092682 101.092682 0 0 1 48.331162 13.636293c-23.129914 4.660505-47.00781 16.052851-50.517572 42.174693z" fill="#231815" p-id="2413"></path></svg>