<?xml version="1.0" standalone="no"?><!DOCTYPE svg PUBLIC "-//W3C//DTD SVG 1.1//EN" "http://www.w3.org/Graphics/SVG/1.1/DTD/svg11.dtd"><svg t="1568854220625" class="icon" viewBox="0 0 1170 1024" version="1.1" xmlns="http://www.w3.org/2000/svg" p-id="3029" width="18.28125" height="16" xmlns:xlink="http://www.w3.org/1999/xlink"><defs><style type="text/css"></style></defs><path d="M1016.685714 1024H153.6C14.628571 1024-36.571429 928.914286 29.257143 819.2l431.542857-731.428571c65.828571-109.714286 175.542857-109.714286 241.371429 0l431.542857 731.428571c73.142857 109.714286 21.942857 204.8-117.028572 204.8zM585.142857 204.8c-36.571429 0-65.828571 29.257143-65.828571 65.828571l36.571428 431.542858h65.828572L658.285714 270.628571c-7.314286-36.571429-36.571429-65.828571-73.142857-65.828571z m0 555.885714c-36.571429 0-65.828571 29.257143-65.828571 65.828572s29.257143 65.828571 65.828571 65.828571 65.828571-29.257143 65.828572-65.828571-29.257143-65.828571-65.828572-65.828572z" fill="#299BE4" p-id="3030"></path></svg>