<?xml version="1.0" standalone="no"?><!DOCTYPE svg PUBLIC "-//W3C//DTD SVG 1.1//EN" "http://www.w3.org/Graphics/SVG/1.1/DTD/svg11.dtd"><svg t="1568854296846" class="icon" viewBox="0 0 1024 1024" version="1.1" xmlns="http://www.w3.org/2000/svg" p-id="2463" width="16" height="16" xmlns:xlink="http://www.w3.org/1999/xlink"><defs><style type="text/css"></style></defs><path d="M13.896 1002.154c-1.502 14.44 12.483 24.962 25.942 19.15 16.034-6.978 166.653-72.752 236.778-103.353L42.377 745.394c-8.78 77.833-27.2 244.036-28.481 256.76zM653.578 778.069c0 19.772 16.07 35.806 35.862 35.806h286.656c19.788 0 35.857-16.034 35.857-35.806 0-19.701-16.069-35.74-35.857-35.74H689.44c-19.792 0-35.862 16.039-35.862 35.74zM803.554 240.384c16.836-22.822 11.947-55.011-10.88-71.836L606.5 31.413c-22.863-16.825-55.042-11.932-71.867 10.895L519.4 62.99l268.906 198.07 15.247-20.676zM498.06 91.936L65.174 679.186l268.901 198.138 432.898-587.307L498.061 91.936zM356.32 742.89c-10.068 13.945-29.493 17.127-43.417 7.095-13.924-10.042-17.07-29.493-7.008-43.452L597.29 302.495c10.068-13.95 29.493-17.131 43.412-7.1 13.918 10.032 17.075 29.493 7.003 43.447l-291.386 404.05zM980.581 952.404H407.652c-19.757 0-35.795 15.977-35.795 35.8 0 19.763 16.038 35.796 35.795 35.796h572.929c19.803 0 35.836-16.033 35.836-35.796 0-19.823-16.033-35.8-35.836-35.8z" fill="#1296db" p-id="2464"></path></svg>