<?xml version="1.0" standalone="no"?><!DOCTYPE svg PUBLIC "-//W3C//DTD SVG 1.1//EN" "http://www.w3.org/Graphics/SVG/1.1/DTD/svg11.dtd"><svg t="1568637579840" class="icon" viewBox="0 0 1024 1024" version="1.1" xmlns="http://www.w3.org/2000/svg" p-id="6692" width="32" height="32" xmlns:xlink="http://www.w3.org/1999/xlink"><defs><style type="text/css"></style></defs><path d="M571.058176 827.733333l63.010133-26.282666c19.524267-8.123733 40.004267-20.411733 66.286934-39.458134l53.521066-38.912 57.480534 32.768 49.834666 28.535467 59.255467-104.106667-109.704533-62.6688 9.898666-68.949333c0.682667-4.642133 1.024-9.352533 1.2288-15.018667 0.2048-5.188267 0.273067-9.8304 0.273067-21.640533 0-19.592533-0.341333-28.2624-1.501867-36.727467l-9.284266-64.7168 54.8864-35.6352 51.677866-33.5872-59.1872-101.717333-110.3872 63.010133-54.272-43.4176c-17.749333-14.199467-40.209067-27.306667-62.532266-36.6592l-63.0784-26.282666V102.4H452.956843v96.4608l-63.010134 26.2144c-19.524267 8.192-40.004267 20.48-66.286933 39.5264l-53.521067 38.912-57.480533-32.768-49.834667-28.535467-59.255466 104.106667 109.704533 62.600533L203.373909 477.866667c-0.682667 4.642133-1.024 9.352533-1.2288 15.018666a539.648 539.648 0 0 0-0.273066 21.640534c0 19.592533 0.341333 28.2624 1.501866 36.727466l9.898667 68.949334-60.484267 34.474666-49.220266 28.0576 59.118933 101.717334L273.074176 721.3056l54.340267 43.4176c17.749333 14.199467 40.1408 27.306667 62.532266 36.6592l63.010134 26.282667V921.6h118.101333v-93.866667zM573.447509 1024H447.836843a97.28 97.28 0 0 1-97.348267-97.28v-30.72c-30.72-12.834133-61.44-30.72-87.108267-51.2l-53.794133 30.72c-46.148267 25.6-107.588267 10.24-133.256533-35.84l-64.034134-110.114133a99.5328 99.5328 0 0 1 35.84-133.12l53.8624-30.72c-2.594133-17.885867-2.594133-35.84-2.594133-51.2 0-17.885867 0-33.245867 2.594133-51.2l-53.8624-30.72a99.5328 99.5328 0 0 1-35.84-133.12l64.034134-112.64c25.668267-46.08 87.108267-61.44 133.256533-35.84l53.794133 30.72c28.194133-20.48 56.388267-38.365867 87.108267-51.2v-33.245867C350.556843 43.485867 394.110976 0 447.973376 0H573.447509c53.794133 0 97.348267 43.485867 97.348267 97.28v30.72c30.72 12.834133 61.44 30.72 87.108267 51.2l53.8624-30.72c43.554133-25.6 107.588267-10.24 133.188266 35.84l64.1024 110.045867c25.6 46.08 10.24 104.994133-35.908266 133.12l-51.2 33.314133c2.525867 17.954133 2.525867 35.84 2.525866 51.2 0 17.954133 0 33.245867-2.594133 51.2l53.8624 30.72c46.08 28.194133 61.44 87.04 35.84 133.12l-64.034133 112.64c-25.668267 46.08-87.108267 61.44-133.256534 35.84l-53.794133-30.72c-28.194133 20.48-56.388267 38.434133-87.108267 51.2v30.72C670.864043 980.514133 627.309909 1024 573.447509 1024z" fill="#FF7557" p-id="6693"></path><path d="M512.007509 648.533333c73.9328 0 136.533333-61.917867 136.533334-136.533333 0-76.1856-60.347733-136.533333-136.533334-136.533333s-136.533333 60.347733-136.533333 136.533333 60.347733 136.533333 136.533333 136.533333z m0 102.4A237.909333 237.909333 0 0 1 273.074176 512C273.074176 379.2896 379.297109 273.066667 512.007509 273.066667S750.940843 379.2896 750.940843 512 640.963243 750.933333 512.007509 750.933333z" fill="#FF7557" p-id="6694"></path></svg>