<?xml version="1.0" standalone="no"?><!DOCTYPE svg PUBLIC "-//W3C//DTD SVG 1.1//EN" "http://www.w3.org/Graphics/SVG/1.1/DTD/svg11.dtd"><svg t="1568854999847" class="icon" viewBox="0 0 1024 1024" version="1.1" xmlns="http://www.w3.org/2000/svg" p-id="3480" width="32" height="32" xmlns:xlink="http://www.w3.org/1999/xlink"><defs><style type="text/css"></style></defs><path d="M878.592 604.16l73.045333-27.52-2.133333-135.68-58.453333-9.130667a47.146667 47.146667 0 0 1-34.261334-24.533333l-25.813333-49.365333a46.677333 46.677333 0 0 1 1.28-45.610667l35.370667-58.325333-96.725334-99.84-60.16 36.778666a46.421333 46.421333 0 0 1-48.085333 0.426667l-43.178667-25.557333a46.933333 46.933333 0 0 1-21.632-29.312l-15.744-65.066667h-141.013333l-15.744 65.066667a46.805333 46.805333 0 0 1-21.632 29.44l-43.178667 25.429333a46.421333 46.421333 0 0 1-48.042666-0.426667l-60.202667-36.821333-96.725333 99.882667 35.072 58.453333c8.234667 13.866667 8.832 31.36 1.28 45.653333L166.144 407.466667c-6.912 13.141333-19.626667 22.186667-34.218667 24.533333l-58.453333 9.088-2.133333 135.68 72.874666 27.434667c11.52 4.48 21.077333 13.397333 26.112 24.661333l18.645334 41.728c6.613333 14.592 5.205333 31.317333-3.626667 44.757333l-37.376 56.448 100.010667 97.834667 54.016-35.925333a45.994667 45.994667 0 0 1 45.141333-3.754667l48.64 21.930667c14.464 6.485333 24.405333 19.498667 26.88 34.944l10.410667 64.938666h156.714666l10.410667-64.938666c2.602667-15.445333 12.544-28.16 26.88-34.645334l48.64-22.101333c14.72-6.784 31.573333-5.333333 45.141333 3.626667l54.016 35.925333 100.010667-97.834667-37.376-56.448a46.592 46.592 0 0 1-3.626667-44.8l18.645334-41.685333c5.034667-11.392 14.549333-20.352 26.112-24.661333z m134.101333-178.218667l2.901334 161.237334a46.933333 46.933333 0 0 1-30.165334 44.458666l-77.397333 29.141334-11.946667 26.88 39.808 60.288a46.634667 46.634667 0 0 1-6.357333 59.050666l-119.637333 117.205334a47.104 47.104 0 0 1-58.624 5.504l-57.6-38.4-31.872 14.421333-11.264 70.314667a45.781333 45.781333 0 0 1-45.184 38.954666H418.005333c-22.698667 0-41.6-16.597333-45.226666-38.954666l-11.221334-70.016-31.914666-14.421334-57.6 38.4c-18.346667 12.117333-42.837333 9.813333-58.581334-5.546666l-119.68-117.162667a46.634667 46.634667 0 0 1-6.357333-59.050667l39.850667-60.330666-11.946667-26.88-77.397333-29.141334a46.933333 46.933333 0 0 1-30.165334-44.458666l2.56-161.664C10.666667 403.2 27.306667 384 49.792 380.458667l64.128-9.941334 17.450667-33.493333-36.949334-61.482667a46.677333 46.677333 0 0 1 6.485334-56.448L215.893333 100.138667a46.208 46.208 0 0 1 57.898667-7.338667l63.061333 38.528 28.288-16.768 17.194667-70.826667a46.592 46.592 0 0 1 45.312-35.968h167.466667c21.632 0 40.277333 14.848 45.312 35.925334l17.194666 71.04 28.288 16.725333 63.061334-38.656c18.773333-11.562667 42.581333-8.533333 57.898666 7.338667l115.328 119.082666c14.72 15.146667 17.322667 38.4 6.485334 56.448L891.733333 337.152l17.493334 33.493333 64.042666 9.941334c22.528 3.498667 39.125333 22.528 39.424 45.354666zM511.146667 594.858667c46.165333 0 83.712-37.546667 83.712-83.712 0-46.208-37.546667-83.754667-83.712-83.754667a83.797333 83.797333 0 0 0 0 167.466667z m0-230.954667c81.237333 0 147.2 66.133333 147.2 147.2 0 81.152-66.090667 147.285333-147.2 147.285333a147.498667 147.498667 0 0 1-147.242667-147.242666 147.498667 147.498667 0 0 1 147.2-147.242667z" p-id="3481" fill="#1296db"></path></svg>