<?xml version="1.0" standalone="no"?><!DOCTYPE svg PUBLIC "-//W3C//DTD SVG 1.1//EN" "http://www.w3.org/Graphics/SVG/1.1/DTD/svg11.dtd"><svg t="1568854214338" class="icon" viewBox="0 0 1109 1024" version="1.1" xmlns="http://www.w3.org/2000/svg" p-id="5401" width="17.328125" height="16" xmlns:xlink="http://www.w3.org/1999/xlink"><defs><style type="text/css"></style></defs><path d="M1096.620644 268.648043L840.6258 12.653199A41.250354 41.250354 0 0 0 810.641299 0.00078a45.583374 45.583374 0 0 0-16.638798 3.379756 39.777127 39.777127 0 0 0-25.998123 39.343825V170.721783H661.325417a1097.034098 1097.034098 0 0 0-131.030536 7.279474 704.02915 704.02915 0 0 0-106.33232 20.365196 431.65549 431.65549 0 0 0-82.93401 32.324332 353.661123 353.661123 0 0 0-63.002116 40.990372 262.234393 262.234393 0 0 0-45.670035 49.656414 288.145855 288.145855 0 0 0-50.349697 112.65853A459.993443 459.993443 0 0 0 173.340662 493.965103a732.453764 732.453764 0 0 0-2.339831 60.662285A318.130356 318.130356 0 0 0 182.006703 636.00151a530.968317 530.968317 0 0 0 25.998122 76.001178c9.272664 21.31846 20.365196 43.330204 33.017616 66.295212s21.405121 38.130579 25.998122 45.670034 9.532645 14.472288 13.952325 20.625177a20.798498 20.798498 0 0 0 17.332082 8.666041 36.744013 36.744013 0 0 0 7.972757-1.299906 20.538517 20.538517 0 0 0 13.345703-22.618366q-30.071161-224.103814 49.396432-315.357223 76.6078-87.353691 291.958913-87.353691h107.025603V554.627388a39.777127 39.777127 0 0 0 25.998123 39.343825 45.063412 45.063412 0 0 0 16.638798 3.293095A39.517146 39.517146 0 0 0 840.6258 584.611889l255.994844-255.908183a41.943637 41.943637 0 0 0 0-60.055663z m0 0" p-id="5402" fill="#1296db"></path><path d="M924.599735 639.987889a19.845233 19.845233 0 0 0-23.31165 5.372945 139.349935 139.349935 0 0 1-35.964069 24.611556 20.885158 20.885158 0 0 0-12.045797 19.325271V831.940692a107.112264 107.112264 0 0 1-106.678961 106.678961h-554.626608a102.432602 102.432602 0 0 1-75.307894-31.371067A102.605922 102.605922 0 0 1 85.293688 831.940692V277.314084a102.779243 102.779243 0 0 1 31.371068-75.307894 102.692583 102.692583 0 0 1 75.307894-31.284407h74.701271a31.631049 31.631049 0 0 0 10.65923-2.686473 444.827872 444.827872 0 0 1 88.653597-40.037108 19.411931 19.411931 0 0 0 17.332082-21.31846 21.578441 21.578441 0 0 0-21.318461-21.318461H191.97265a184.93331 184.93331 0 0 0-135.623538 56.329265A184.93331 184.93331 0 0 0 0.019847 277.314084v554.626608a185.279951 185.279951 0 0 0 56.329265 135.710198 184.93331 184.93331 0 0 0 135.623538 56.329265h554.626608A192.299444 192.299444 0 0 0 938.638721 831.940692V659.31316a20.191875 20.191875 0 0 0-14.038986-19.325271z m0 0" p-id="5403" fill="#1296db"></path></svg>