<?xml version="1.0" standalone="no"?><!DOCTYPE svg PUBLIC "-//W3C//DTD SVG 1.1//EN" "http://www.w3.org/Graphics/SVG/1.1/DTD/svg11.dtd"><svg t="1568854986946" class="icon" viewBox="0 0 1024 1024" version="1.1" xmlns="http://www.w3.org/2000/svg" p-id="14553" width="32" height="32" xmlns:xlink="http://www.w3.org/1999/xlink"><defs><style type="text/css"></style></defs><path d="M509.553866 85.261004m-63.945752 0a63.945753 63.945753 0 1 0 127.891505 0 63.945753 63.945753 0 1 0-127.891505 0Z" fill="#1296db" p-id="14554"></path><path d="M509.553866 42.630502a42.630502 42.630502 0 1 1-42.630501 42.630502 42.630502 42.630502 0 0 1 42.630501-42.630502m0-42.630502a85.261004 85.261004 0 1 0 85.261004 85.261004 85.261004 85.261004 0 0 0-85.261004-85.261004z" fill="#1296db" p-id="14555"></path><path d="M509.553866 1001.816792a107.642017 107.642017 0 0 1-100.394831-70.127175 2.131525 2.131525 0 0 1 0-2.131525 3.41044 3.41044 0 0 1 2.770982-1.492068h194.395088a3.41044 3.41044 0 0 1 2.770983 1.492068 2.131525 2.131525 0 0 1 0 2.131525A107.642017 107.642017 0 0 1 509.553866 1001.816792z" fill="#1296db" p-id="14556"></path><path d="M575.631144 949.381275a85.261004 85.261004 0 0 1-132.367708 0h132.367708m30.907114-42.630502h-194.181936a24.512539 24.512539 0 0 0-23.233623 32.399181 127.891505 127.891505 0 0 0 240.862335 0 24.512539 24.512539 0 0 0-23.233624-32.399181z" fill="#1296db" p-id="14557"></path><path d="M119.271622 847.707528a57.338025 57.338025 0 0 1 0-114.462897H147.194601V464.033012a362.359265 362.359265 0 0 1 362.359265-362.359265h13.215456C715.246038 108.70778 871.913132 275.393042 871.913132 473.19857v260.046061h27.922978a57.338025 57.338025 0 1 1 0 114.67605z" fill="#1296db" p-id="14558"></path><path d="M509.553866 122.988998h12.575998C703.096344 129.596725 850.597881 286.690125 850.597881 473.19857v281.361312h49.238229a36.022774 36.022774 0 1 1 0 72.045548H119.271622a36.022774 36.022774 0 0 1 0-71.832396H168.509852V464.033012a341.044014 341.044014 0 0 1 341.044014-341.044014m0-42.630502a383.674516 383.674516 0 0 0-383.674516 383.674516V711.92938h-6.607728a78.653276 78.653276 0 0 0 0 157.306552h780.564488a78.653276 78.653276 0 1 0 0-157.0934H893.228382V473.19857c0-208.036849-161.782754-385.166584-369.60645-392.626922z" fill="#1296db" p-id="14559"></path><path d="M114.582267 733.457783H147.194601v-161.995906h724.718531v161.782754H114.582267z" fill="#1296db" p-id="14560"></path><path d="M850.597881 592.777127v119.152253H168.509852v-119.152253h682.088029m42.630501-42.630501H125.87935v161.782754h-6.607728a78.226971 78.226971 0 0 0-69.70087 42.630502h919.966229a78.226971 78.226971 0 0 0-69.700871-42.630502H893.228382v-161.782754z" fill="#1296db" p-id="14561"></path></svg>